<?xml version="1.0" encoding="UTF-8" standalone="no"?>
<!-- Created with Inkscape (http://www.inkscape.org/) -->

<svg
   xmlns:dc="http://purl.org/dc/elements/1.1/"
   xmlns:cc="http://creativecommons.org/ns#"
   xmlns:rdf="http://www.w3.org/1999/02/22-rdf-syntax-ns#"
   xmlns:svg="http://www.w3.org/2000/svg"
   xmlns="http://www.w3.org/2000/svg"
   xmlns:sodipodi="http://sodipodi.sourceforge.net/DTD/sodipodi-0.dtd"
   xmlns:inkscape="http://www.inkscape.org/namespaces/inkscape"
   width="210mm"
   height="297mm"
   viewBox="0 0 744.09448819 1052.3622047"
   id="svg2"
   version="1.1"
   inkscape:version="0.91 r13725"
   sodipodi:docname="logo1.svg">
  <defs
     id="defs4" />
  <sodipodi:namedview
     id="base"
     pagecolor="#ffffff"
     bordercolor="#666666"
     borderopacity="1.0"
     inkscape:pageopacity="0.0"
     inkscape:pageshadow="2"
     inkscape:zoom="0.35"
     inkscape:cx="-1246.0424"
     inkscape:cy="1517.3411"
     inkscape:document-units="px"
     inkscape:current-layer="layer1"
     showgrid="false"
     inkscape:window-width="1920"
     inkscape:window-height="1033"
     inkscape:window-x="0"
     inkscape:window-y="0"
     inkscape:window-maximized="1" />
  <metadata
     id="metadata7">
    <rdf:RDF>
      <cc:Work
         rdf:about="">
        <dc:format>image/svg+xml</dc:format>
        <dc:type
           rdf:resource="http://purl.org/dc/dcmitype/StillImage" />
        <dc:title />
      </cc:Work>
    </rdf:RDF>
  </metadata>
  <g
     inkscape:label="Layer 1"
     inkscape:groupmode="layer"
     id="layer1">
    <path
       style="opacity:1;fill:#ff7f2a;stroke:none"
       d="m -434.09895,-660.3932 c -300.93953,-0.57392 -602.08805,165.7506 -638.47655,500.48242 -67.3975,21.60431 -112.2422,80.037263 -112.2422,210.326173 0,176.169887 88.2636,238.982377 197.14258,238.982417 108.87901,4e-5 117.14258,-62.81247 117.14258,-238.982417 0,-127.536063 -7.63688,-186.219293 -53.15625,-208.906253 66.99749,-618.87934 932.3890854,-607.43635 985.08203,21.4961 -39.324713,29.75543 -43.353515,97.465453 -43.353515,220.283203 0,176.169947 14.548732,220.984407 123.427735,220.984367 108.879,-4e-5 190.85742,-44.81448 190.85742,-220.984367 0,-136.744749 -53.18519,-205.181353 -127.90625,-228.968753 -28.59582,-342.02924 -333.44327,-514.13109 -638.51758,-514.71289 z"
       id="rect4136"
       inkscape:connector-curvature="0" />
    <path
       style="opacity:1;fill:#ff7f2a;fill-opacity:1;stroke:none"
       d="m -844.3369,-77.21196 -17.62394,183.24257 0,31.97293 17.62394,-183.242567 17.62395,267.170477 17.62394,-209.819747 17.6235,139.879837 17.62402,-195.831787 17.62394,237.795737 17.62395,-167.855797 17.62394,153.867817 17.62387,-195.831787 17.62402,188.837797 17.62349,-125.891857 17.62395,90.921877 17.62394,0 3.39964,0 0,-31.97293 -3.39964,0 -17.62394,0 L -668.09828,22.102723 -685.72177,147.99458 -703.34579,-47.837217 -720.96966,147.99458 -738.5936,-5.8732366 -756.21755,161.98256 -773.84149,-75.813177 -791.46551,120.01861 -809.08901,-19.861227 -826.71295,189.95852 -844.3369,-77.21196 Z"
       id="rect4224"
       inkscape:connector-curvature="0" />
    <g
       id="g4546"
       transform="matrix(0.14259312,0,0,0.14259312,-1798.9469,323.91487)">
      <path
         inkscape:connector-curvature="0"
         id="path4251"
         d="m -2522.7773,-2392.5354 c -0.088,0.018 -0.1916,0.058 -0.3125,0.125 -9.2797,5.1127 -18.0873,11.002 -26.7774,17.084 -8.9429,2.8827 -17.7967,5.98 -26.293,9.9571 -1.7949,0.8402 0.542,3.9308 0.6739,5.9082 0.044,0.6655 0.071,1.3322 0.1113,1.998 -0.2092,0.1405 -0.4155,0.2858 -0.625,0.4258 -0.1333,20.1669 0.8163,40.2719 2.3027,60.3437 0.038,3.0052 0.067,6.0104 0.1,9.0157 -0.5579,0.4796 -1.0877,0.9213 -1.6718,1.4336 -1.7657,0.8185 -3.5311,1.6352 -5.3106,2.416 0.1137,0.6819 0.1994,1.3734 0.2989,2.0605 -4.7248,4.2823 -10.2985,9.4497 -17.2208,15.711 -0.6027,0.5451 -0.2866,0.9318 0.4747,1.2304 -0.1178,0.086 -0.088,0.093 0.07,0.027 1.543,0.574 4.7719,0.8093 6.3164,1.1914 3.1084,0.7688 6.3148,1.0616 9.4726,1.5918 0.7331,0.1082 1.4677,0.2027 2.2012,0.3066 0.085,14.6503 -1.1189,29.7472 -0.2832,44.0469 -0.118,13.313 -0.1908,26.6355 -0.5508,39.9473 -1.0045,0.6543 -2.03,1.3105 -3.0781,1.9668 -12.3974,4.4859 -9.8621,0.7737 -5.4785,4.373 4.4396,21.532 11.2103,42.5859 13.4922,64.5527 0,2.8115 -0.019,5.6223 -0.033,8.4336 -2.6583,11.553 -9.4204,25.3622 -0.4121,30.1934 0,0 0.01,0.01 0.014,0.01 -0.1269,5.7651 -0.2773,11.5295 -0.4726,17.293 4.7263,-3.0291 12.3454,-8.0151 20.9238,-14.3379 0.3529,2.7093 0.685,5.1063 1.0273,7.1172 -0.1069,0.7828 -0.1017,1.386 0.2618,1.4316 0.5148,2.6985 1.0803,4.6869 1.8046,6 1.2377,18.1612 2.8183,36.3018 4.6055,54.4277 0.018,2.9063 0.03,5.8125 0.045,8.7188 -1.0879,26.5089 -3.5687,52.9739 -6.5078,79.375 -4.8931,2.4181 -9.8002,4.7924 -14.7968,6.8613 0.8487,2.6434 0.7887,2.383 0.7714,4.4883 -0.2005,0.1653 -0.4079,0.3214 -0.6074,0.4883 -3.0022,2.5119 0.3805,7.8199 0.5039,11.7324 0.8792,27.8556 0.8558,55.7243 0.8028,83.5898 0.2582,4.0464 0.284,8.119 0.205,12.2051 -0.2978,0.1594 -0.5581,0.2971 -0.8535,0.4551 -11.3774,-0.01 -19.3146,2.8583 -30.918,16.4395 -38.9079,20.6018 -35.3251,19.1028 -13.3007,18.4355 0.2566,0.5205 1.5235,0.3834 3.2812,-0.078 1.4752,-0.03 2.9484,-0.063 4.5449,-0.068 5.6723,-0.02 11.3453,-0.028 17.0176,-0.041 6.5699,0 13.1391,0.022 19.709,0.035 0.2936,4.2436 0.8258,8.4653 1.7676,12.6464 1.6321,7.2462 3.3989,10.3495 6.3926,17.1739 13.6539,33.8412 17.2173,70.7046 20.6757,106.7285 0.1556,2.1337 0.3188,4.2671 0.4805,6.4004 -2.562,-0.019 -5.1236,-0.032 -7.6855,-0.057 -1.5507,-0.01 -23.0118,-0.4927 -23.5899,-0.1523 -0.5227,0.3078 -0.969,0.559 -1.4844,0.8613 -13.8126,-1.5891 -11.6057,-1.142 -27.4765,15.5625 -34.5858,18.8534 -38.085,18.2946 -19.5059,19.1973 -0.3528,0.5484 0.9575,0.4012 2.5742,0.1308 0.4685,0.025 0.7356,0.035 1.2266,0.062 12.738,0.65 25.4738,1.3459 38.209,2.0489 -22.7973,-0.09 -45.594,-0.2195 -68.3906,-0.3809 -12.5306,11.7287 -23.3448,21.8299 -33.8907,32.9942 53.7699,-0.3745 107.5417,-0.5359 161.3125,-0.4786 0.1253,1.7118 0.2407,3.4235 0.3379,5.1368 -0.8226,3.0673 -1.4505,5.8976 0.293,5.9882 0.079,2.037 0.1481,4.0752 0.1934,6.1114 0.2258,1.1965 0.426,2.2553 0.623,3.2617 -0.069,6.4788 -0.1502,12.957 -0.248,19.4355 l 32.5039,-16.5625 -46.4532,34.6407 c 57.833,-5.8614 116.051,-6.7531 174.1211,-8.2247 68.214,-1.2192 136.4415,-1.3599 204.6621,-0.7304 0.5344,0.6714 1.359,1.0847 2.5743,1.1523 0.1668,0.01 0.3166,0.016 0.4824,0.025 -1.0455,18.8055 -6.3606,33.0967 26.1465,0.6602 25.1447,-0.5199 27.7256,-5.8949 27.0214,-16.2246 5.1256,-4.8237 10.9303,-11.3034 18.0567,-20.0625 3.8178,-4.6924 -9.5734,-7.5257 -14.9707,-10.2578 -1.4964,-0.7582 -3.0169,-1.4646 -4.5469,-2.1504 -0.075,-5.1735 -0.1528,-10.7596 -0.1641,-11.5411 -0.025,-3.108 -0.054,-6.2224 -0.082,-9.3339 0.3099,10e-5 0.6198,-3e-4 0.9297,0 7.3967,0.018 3.7531,0.01 10.9258,0.029 l 1.4355,-1.043 c 0.6109,0.099 1.2193,0.2057 1.8262,0.3262 l 48.9414,-34.6348 c -9.6111,-1.6518 -19.7609,-1.0723 -29.0996,-4.0703 -5.5048,-5.9617 -4.9245,-19.9453 -5.3359,-27.1914 -0.7036,-12.391 -0.7577,-21.54 -1.002,-34.0489 -0.034,-5.4178 -0.084,-10.8341 -0.1016,-16.2519 l 0.5411,-0.2813 c -0.1658,-1.7243 -0.3591,-3.4443 -0.5469,-5.166 0,-1.4926 0,-2.8698 0.01,-3.9785 10.2685,-0.021 20.8479,-0.046 22.9336,-0.066 4.6141,-0.046 9.6649,1.676 13.8399,-0.2891 2.4973,-1.1754 4.9794,-2.3806 7.4492,-3.6152 3.6826,1.8645 5.6659,2.2235 9.7461,-1.0449 1.5854,-3.2365 3.318,-6.4224 4.8359,-9.1348 -0.684,-0.1551 -1.3475,-0.272 -1.957,-0.291 -0.9055,0 -1.8113,0.01 -2.7168,0 -0.094,-0.01 -0.191,0 -0.2852,-0.01 l -4.4218,0 c -1.6223,0.072 -3.519,0.2063 -6.0449,0.4043 -0.094,0 -0.6047,0.013 -0.8145,0.018 -1.0372,0.2616 -2.0453,0.4794 -2.6133,0.051 -4.2951,0.077 -11.0591,0.1232 -11.623,-0.4258 -16.4325,-15.9987 -10.298,-17.4597 -2.4551,-22.3164 1.4203,-0.373 2.8268,-0.8044 4.2461,-1.1816 -0.903,-2.0604 -1.581,-4.2427 -1.9688,-6.4571 -5.3351,0.064 -10.0723,0.038 -13.8906,-5.0156 -0.099,-0.052 -0.1918,-0.098 -0.2851,-0.1465 -0.019,0.1789 -0.027,0.3609 -0.049,0.5391 -2.4101,-1.7599 -1.7134,-1.4611 0.049,-0.5391 0.01,-0.079 0.014,-0.159 0.021,-0.2383 -0.5518,-0.7728 -1.0874,-1.6329 -1.6015,-2.6406 -1.4922,-2.9246 -0.9669,-11.3632 1.8496,-9.6758 0.1677,0.1005 0.3209,0.2172 0.4805,0.3262 0.2556,-2.0115 0.6747,-3.979 1.4746,-5.8437 0.5901,-1.3757 2.3696,-1.4223 4.1211,-1.3868 -0.5232,-3.1908 -0.2021,-4.1185 1.7851,-4.1484 -0.2221,-1.2813 -0.4373,-2.5644 -0.6387,-3.8496 -0.025,-0.1591 0.3214,-7e-4 0.4825,0 0.9616,-0.011 1.9231,-0.022 2.8847,-0.033 9e-4,-0.01 0,-0.01 0,-0.016 2.508,-0.049 5.017,-0.063 7.5254,-0.068 2.7824,-0.029 5.5652,-0.046 8.3476,-0.072 0.6843,-0.8242 1.4348,-1.585 2.293,-2.2382 0.1769,-0.1347 0.5322,-0.2224 0.9668,-0.2872 -8.0288,0.4193 -16.0567,0.8769 -24.082,1.3653 0.9812,-0.8434 1.9666,-1.6822 2.9433,-2.5313 9.2142,-5.7226 18.3492,-11.5644 27.1641,-17.8769 1.7401,-1.2461 -4.2709,0.3216 -6.4102,0.3886 -0.2193,0.01 -0.4388,0.01 -0.6582,0.016 0.1408,-0.1188 0.279,-0.2408 0.4199,-0.3594 -10.9755,0.3016 -21.9535,0.5647 -32.9316,0.7988 -7.295,0.062 -14.5899,0.1206 -21.8848,0.1973 -1.7747,0.019 -3.5494,0.041 -5.3242,0.06 -0.7245,-5.0381 -1.4521,-10.0749 -2.1445,-15.1171 -0.3711,-2.6128 -1.0283,-7.2535 -1.5781,-11.1094 38.8648,-23.0846 39.5482,-20.2597 22.5234,-19.3809 -0.03,0.043 -0.1854,0.1896 -0.4062,0.2949 0.1337,-0.1007 0.2519,-0.1935 0.3867,-0.2949 -0.3686,0.019 -0.7637,0.034 -1.1485,0.051 -0.2087,-0.1732 -0.4026,-0.3791 -0.6191,-0.5352 l -0.9766,0.6036 c -0.1217,0 -0.2206,0.012 -0.3437,0.016 -7.3659,0.08 -14.7316,0.1 -22.0977,0.1055 -0.703,-5.1524 -1.3473,-9.986 -1.7441,-13.3692 -0.6719,-5.7278 4.0829,-17.3057 -1.6836,-17.2187 -0.5646,0.01 -1.1263,0.028 -1.6875,0.057 0.2157,-2.8536 0.4327,-5.7069 0.6484,-8.5605 0.2934,-0.3024 1.2242,-1.1476 0.8789,-0.9063 -7.5219,5.2578 -15.5716,9.9181 -23.4629,14.7617 -10.2026,3.9741 -20.1805,9.2739 -30.4746,12.711 0.293,0.01 0.8339,-0.2701 0.8789,0.02 0.4846,3.1007 0.6077,6.2433 0.7989,9.3789 -0.8643,0.9969 -1.2007,2.1474 -1.1973,3.3984 -21.6186,0.1866 -43.236,0.4044 -64.8555,0.4786 -43.4815,0.2649 -87.0045,0.5232 -130.4375,2.7187 2.903,-29.7513 5.4623,-59.5372 7.9766,-89.3223 5.265,-60.7195 7.1262,-121.6271 7.9844,-182.541 1.012,-27.9975 0.9726,-56.0318 0.8652,-84.0469 0.1178,-34.5591 0.3135,-69.1195 1.0488,-103.6718 0.065,-2.6957 0.1174,-5.3925 0.1954,-8.0879 0.052,-1.8398 1.9057,-6.0855 0.2558,-5.5977 0.3143,-9.9778 -3.4776,-7.5067 -24.4101,7.1602 -0.065,-9.1138 -0.562,-18.2745 -0.5665,-27.4121 0.143,-2.0143 0.2841,-4.029 0.4004,-6.045 0.1249,-2.1653 2.3241,-7.1974 0.2696,-6.5019 -0.092,0.031 -0.1832,0.066 -0.2754,0.098 0.069,-0.9443 0.149,-1.8872 0.2402,-2.8301 -8.1546,4.5735 -16.4985,8.8407 -24.7754,13.2168 -7.1339,3.4502 -14.1976,7.0751 -21.3262,10.539 -1.268,-0.3 -2.5367,-0.5981 -3.8281,-0.7617 -7.8565,-0.9954 -16.1565,-0.1386 -24.0176,0.1445 -18.3896,0.6621 -7.8681,0.3417 -27.2617,0.836 -17.538,0.3794 -35.081,0.537 -52.623,0.5176 0.023,-0.6373 0.037,-1.2749 0.061,-1.9121 l -2.9883,1.5234 c -2.8268,-0.1327 -6.1714,0.2857 -8.6757,0.2539 -0.5038,0 -6.164,-0.043 -7.4981,-0.043 -1.612,-24.6411 -2.3928,-49.3227 -1.1992,-74.0234 -0.2074,0.073 -0.4174,0.1387 -0.625,0.2109 0.04,-0.7044 0.067,-1.4091 0.1113,-2.1133 0.1292,-2.0674 2.3089,-6.9918 0.9864,-6.7207 z m 19.8886,80.9122 0,0 0,0 0,0 z m 437.3106,482.5097 c 0.01,-3e-4 0.013,3e-4 0.02,0 0.01,-0.013 0.096,-0.087 0.059,-0.059 -0.027,0.02 -0.051,0.038 -0.078,0.059 z m -510.1914,-221.7812 c -5.2199,3.3454 -6.829,4.2748 -0.016,0.5449 0.01,-0.1816 0.01,-0.3633 0.016,-0.5449 z m 71.4531,-191.6387 c 12.2494,0.031 24.4987,0.1006 36.748,0.1094 4.6504,-0.021 9.3009,-0.037 13.9512,-0.055 0.7842,3.0598 1.5481,6.1241 2.2246,9.2109 2.2924,12.1202 5.1832,24.1612 4.8653,36.6035 0.4388,6.763 1.5782,13.31 3.8691,19.7188 1.2028,4.8616 2.2625,9.8389 5.9629,13.4629 0.9863,5.2261 1.9156,10.4599 2.791,15.7012 -0.112,14.6484 -0.1504,29.3642 1.1309,43.8457 0.2608,2.9472 -1.4811,9.5997 1.3593,8.7714 0.2096,-0.061 0.4159,-0.1309 0.625,-0.1933 0.068,8.8988 0.2429,17.7977 0.5996,26.6894 -13.6183,6.0987 -25.2283,13.621 -28.4785,28.3067 -0.6547,16.5667 0.8148,33.1596 1.0528,49.7246 0.6026,13.631 1.9605,27.1057 3.8789,40.6035 1.2196,10.4536 3.3373,20.6536 8.0527,30.1602 4.1421,10.958 8.2902,21.9145 12.4844,32.8554 3.5889,9.5074 7.5908,18.9497 10.9629,28.5606 0.1335,3.6059 0.3616,7.2054 0.6523,10.8008 3.1658,-0.6993 7.3758,-1.457 8.8828,-0.418 13.098,9.0295 12.7407,9.9226 12.6934,19.2637 0.01,4.693 -0.024,9.3851 -0.022,14.0781 0.083,7.2166 0.2694,14.442 -0.25,21.6484 -0.1997,1.2786 -1.0006,0.8912 -1.9668,-0.1562 1.1388,1.3179 2.2321,2.6637 2.9629,4.2187 1.6613,3.535 0.2104,10.9123 -0.1914,14.2774 -0.3355,1.1226 -0.6414,2.2548 -0.9551,3.3847 0.4979,0.212 0.9973,0.4233 1.4824,0.668 5.2224,2.6338 10.0058,5.7904 14.4551,9.3281 2.2299,0.3109 4.4559,0.7535 6.5352,0.5352 2.2857,-0.2583 3.7535,0.2915 4.7031,1.2734 5.3977,-0.8939 10.786,-1.8647 16.2285,-2.3984 7.3205,-0.7178 14.8315,-0.9449 22.3379,-1.0039 11.1222,-6.1935 26.0924,-10.0899 44.9238,-10.0899 l 3.2832,0 43.9414,0 c 13.5304,0 25.0549,2.0222 34.6055,5.4512 8.3431,-0.4191 16.708,-0.4346 25.0274,0.3867 0.2316,0.023 4.7554,0.4438 4.9785,1.2695 0.5262,1.9478 0.421,3.9925 0.3515,6.0313 l 3.3887,0 5.4551,0 5.3066,0 c 1.2027,0.469 2.5169,0.7174 3.6074,1.4082 0.9034,0.5724 1.5662,1.4666 2.2403,2.2969 2.438,3.003 3.8192,6.6568 5.0195,10.3144 21.6475,10.5081 28.9885,42.534 5.9668,76.6739 0.3558,2.4348 0.3848,4.9136 -0.035,7.3418 0.1126,1.4837 -0.078,2.9998 0.072,4.4746 0.085,0.8324 0.2942,1.647 0.4414,2.4707 0.1593,0.8875 0.3452,1.7722 0.4785,2.664 0.2827,1.8911 0.3789,2.97 0.3223,4.8672 -0.017,0.5776 -0.051,1.1577 -0.1523,1.7266 -0.036,0.2003 -0.09,0.4196 -0.1465,0.6308 0,0.026 0.01,0.033 0.01,0.049 0.018,0.1993 0.038,0.3976 0.045,0.5976 0.061,1.9888 0.022,3.9815 0.01,5.9707 -0.025,1.3434 -0.01,2.6858 -0.01,4.0293 l 0,5.5957 c 0.1335,4.3298 0.091,9.1754 -6.4766,8.5977 -0.044,8.6613 0.1097,17.321 0.086,25.9824 -19.3712,0.9245 -38.7156,2.3807 -57.9863,4.6035 -2.292,0.2717 -4.5808,0.5631 -6.8711,0.8457 -41.2107,-1.9786 -82.3576,-5.0951 -123.2969,-10.4687 -12.3618,-1.535 -1.1909,-0.1466 -7.3516,-0.9141 -2.9852,0.8652 -6.0103,1.7609 -9.2461,2.6992 -9.5099,2.4682 -12.5307,3.7388 -22.2617,4.4024 -3.4926,0.2382 -7.0011,0 -10.5019,0 l -9.5352,0 c -2.9442,5.4535 -10.655,9.177 -22.3438,6.8808 -6.5439,-1.2855 -7.5741,-1.3645 -15.1113,-3.6308 -2.3289,-0.7002 -4.673,-1.4049 -6.8847,-2.416 -0.2496,-0.1141 -0.083,-0.6617 -0.2403,-0.834 l -1.7129,0 c -0.5767,0.089 -1.1545,0.2161 -1.7304,0.2715 -0.098,-0.088 -0.1919,-0.1822 -0.2891,-0.2715 l -4.4727,0 c -2.286,0 -3.8215,-0.7493 -4.6269,-1.7578 -0.093,0.7839 -0.5349,1.2804 -1.3652,3.041 -2.0784,1.3865 -2.9998,1.285 -5.2051,0.6308 -0.072,-0.021 0.1673,0.1027 0.1426,0.1739 -1.2568,-0.9768 -2.8759,-1.6145 -3.7696,-2.9317 -0.4937,-0.7277 -0.036,-1.7578 -0.01,-2.6367 0.047,-1.4894 0.3461,-3.0009 0.2461,-4.4961 -1.4535,-0.8684 -2.9134,-1.7274 -4.2149,-2.8027 -2.6221,-2.1663 -4.8872,-4.733 -7.3301,-7.0996 -1.6503,-4.0413 -3.743,-7.9282 -4.9511,-12.1231 -0.9288,-3.2247 0.5299,-11.3861 0,-15.4258 l 0,-19.4121 0,-21.8965 0,-9.1113 0,-24.3555 0,-16.8398 0,-18.4258 0,-13.6523 c 0,-7.8586 10e-5,-15.7156 0,-23.5742 0,-4.975 0,-9.9508 0,-14.9258 -2e-4,-3.7153 -6e-4,-7.4313 0,-11.1465 0,-4.457 -0.01,-8.9142 -0.01,-13.3711 0.021,-4.393 0.077,-8.7848 -0.039,-13.1777 -0.01,-0.7945 -0.025,-5.5068 -0.037,-9.668 -0.1433,-0.4792 -0.2372,-0.9491 -0.2578,-1.4023 -0.071,-1.5601 0.053,-3.1683 0.2578,-4.6895 0.014,-4.8084 0.057,-9.063 0.1953,-9.1016 1.7751,-0.4953 3.4218,-0.947 4.9883,-1.3711 -6.3674,-39.6831 -12.4231,-79.4129 -16.586,-119.4043 -0.581,-5.2731 -1.1427,-10.5484 -1.6953,-15.8242 -0.1089,-10.5664 -0.2434,-21.1334 -0.4023,-31.6992 0.8094,-17.1431 1.4146,-34.2975 1.748,-51.4726 -0.2209,0.092 -0.443,0.1813 -0.664,0.2734 0.047,-0.6917 0.092,-1.3834 0.1503,-2.0742 0.091,-1.078 1.6164,-3.6961 0.668,-3.1758 -0.8849,0.4855 -1.7594,0.9885 -2.6406,1.4805 -0.2462,-16.5815 -0.5642,-33.1621 -1.0625,-49.7383 0.018,-0.2343 0.011,-0.4822 -0.021,-0.7461 -0.021,-0.6901 -0.039,-1.3803 -0.061,-2.0703 -0.068,0.032 -0.1369,0.062 -0.2051,0.094 0,-0.13 -0.011,-0.2613 0,-0.3828 0.058,-0.5476 0.8558,-1.8655 0.3672,-1.6113 -1.8966,0.9867 -3.7851,1.9866 -5.6738,2.9883 -0.2035,-0.7314 -0.4226,-1.454 -0.6719,-2.1621 -0.1037,-0.2945 -0.2404,-0.5742 -0.3906,-0.8458 0,-0.6884 0,-1.3775 -0.01,-2.0664 0.697,-0.014 1.5382,0.021 2.5879,0.129 -0.8083,-6.2205 -1.6481,-12.4371 -2.498,-18.6524 0.063,-3.9502 0.1518,-7.9012 0.2676,-11.8535 0.052,-23.0377 0.046,-46.081 0.2402,-69.1211 z m 102.0703,449.293 c -2.1256,-2.3045 -5.0559,-7.7996 -4.1699,-5.752 0.9403,2.1732 2.6005,3.9357 4.1699,5.752 z m -80.0176,-67.1739 c -0.1035,0.1856 -0.1541,0.259 -0.2851,0.502 0.3919,0.1262 0.3988,-0.1284 0.2851,-0.502 z m -80.416,10.6953 c -0.2161,0.5743 -0.4679,1.1321 -0.7851,1.6602 -0.4425,0.7365 -3.3007,0.7314 -2.5606,0.2949 1.1127,-0.6562 2.2303,-1.3035 3.3457,-1.9551 z m 316.6641,54.6192 c 28.1731,0.037 56.3429,0.5779 84.5136,0.9023 5.3566,0.063 10.7136,0.095 16.0704,0.1192 0.094,3.8585 0.1787,7.7174 0.2617,11.5761 -0.4395,0.01 -0.8789,0.022 -1.3184,0.031 -48.3922,0.4325 -96.7897,0.5141 -145.1777,0.6152 -18.6717,-0.095 -37.3418,-0.2757 -56.0117,-0.5136 0.022,-0.3383 0.052,-0.6727 0.094,-1 0.445,-3.5218 0.8534,-7.0484 1.2481,-10.5762 29.4059,-0.8234 58.8354,-0.9984 88.2461,-1.1367 4.0249,-0.017 8.0494,-0.023 12.0742,-0.018 z m 199.4551,43.8223 c -0.4365,1.1567 -0.1676,3.1202 0.9121,5.5742 0.025,-0.1702 0.056,-0.3396 0.082,-0.5098 -0.3719,-1.9596 -0.706,-3.6413 -0.9941,-5.0644 z m -98.0333,1.1992 c 0,0.2467 0.01,0.4934 0.012,0.7402 -1.2752,-0.2511 -2.5555,-0.4801 -3.834,-0.7168 0.03,-3e-4 0.06,0 0.09,0 1.2441,-0.01 2.4883,-0.013 3.7324,-0.022 z m -215.6542,14.4062 c 0.2563,0.3321 0.5027,0.6709 0.7578,1.0039 0.5592,5e-4 1.1185,-3e-4 1.6777,0 0.078,-0.3346 0.1599,-0.6685 0.248,-1.0019 -0.8945,-6e-4 -1.7891,0 -2.6835,0 z m 199.7089,71.3106 c -2.4654,0.7995 -5.8462,1.7008 -10.1601,3.0605 -0.028,0.8097 -0.069,1.6187 -0.088,2.416 -0.037,1.5876 -0.035,2.3728 -0.041,3.2383 3.0121,1.1583 6.0065,2.3575 8.9922,3.5781 2.1768,-4.2707 3.2606,-8.7818 1.2968,-12.2929 z m 13.8985,2.5742 c -0.03,0.1692 -0.05,0.3391 -0.084,0.5078 0.072,0.034 0.081,-0.2812 0.084,-0.5078 z m -9.8262,5.1973 c -1.2202,1.365 -2.4736,2.7288 -3.7969,4.0918 -0.2501,0.2576 -0.5047,0.5109 -0.7558,0.7675 1.8637,0.7666 3.7285,1.5315 5.58,2.3262 -0.1193,-1.3343 -0.3892,-2.6558 -0.6347,-3.9727 -0.1504,-1.064 -0.2804,-2.1376 -0.3926,-3.2128 z m 10.7129,12.0449 c -0.157,0.5113 -0.2721,0.8158 -0.066,0.2832 0.022,-0.094 0.046,-0.1883 0.066,-0.2832 z m -321.0449,38.291 c 0.1026,0.3155 0.2076,0.6307 0.3242,0.957 0.01,-0.2829 0.013,-0.5634 0.021,-0.8457 -0.1136,-0.038 -0.2365,-0.07 -0.3457,-0.1113 z m 69.7949,0.3164 c -0.03,0.01 -0.057,0.022 -0.088,0.031 0.1217,0 0.1945,-5e-4 0.334,0 -0.065,-0.01 -0.1748,-0.022 -0.2461,-0.031 z m -62.3047,2.2227 c 0.01,0.2824 0.013,0.5642 0.01,0.8457 0.2046,0.1519 0.3539,0.2714 0.2988,0.3007 0.2493,0.019 0.5,0.028 0.75,0.041 -0.365,-0.3826 -0.718,-0.7769 -1.0547,-1.1875 z m 93.6231,1.2988 0,0 c 0,-5e-4 0,0 0.01,0 0,2e-4 -0.01,-2e-4 -0.01,0 z m -89.7032,0.8105 c -0.1413,0.2185 -0.2662,0.4458 -0.3476,0.6953 0.1738,-0.1692 0.3476,-0.3385 0.5215,-0.5078 -0.058,-0.063 -0.116,-0.1249 -0.1739,-0.1875 z m -10.9609,0.5938 c 0.053,0.3509 0.1323,0.9083 0.1133,0.6797 -0.018,-0.221 -0.052,-0.4404 -0.082,-0.6602 -0.01,-0.01 -0.021,-0.013 -0.031,-0.02 z m 9.9004,0.2383 c -0.012,0.01 -0.021,0.027 -0.025,0.064 -0.1645,1.2968 -0.1837,2.0771 -0.1602,2.625 0.1452,-0.2369 0.3202,-0.4653 0.5391,-0.6758 0.055,-0.2661 0.064,-0.5752 -0.01,-1.1211 -0.036,-0.2623 -0.2624,-0.9306 -0.3437,-0.8925 z m 2.1387,0.3359 c -0.074,0.2776 -0.1457,0.5242 -0.2325,0.7285 0.2204,-0.085 0.4442,-0.1672 0.6934,-0.2305 -0.1518,-0.1689 -0.3089,-0.3296 -0.4609,-0.498 z m -2.6368,3.041 c -0.094,0.054 -0.1903,0.1039 -0.2773,0.168 -0.083,0.061 0.1373,-0.072 0.2715,-0.1504 0,-0.01 0,-0.012 0.01,-0.018 z m -6.5918,2.9551 c -0.3896,1.4445 -0.1134,0.6923 0,0 z m 186.4668,48.6855 c 0.011,-10e-5 0.022,2e-4 0.033,0 14.4048,2.676 28.7581,5.6745 43.043,9.0762 19.4114,5.2511 32.1065,8.2835 46.3242,12.7617 -41.4873,0.4606 -82.9759,0.8795 -124.4629,1.3711 -56.1475,0.5767 -112.2692,1.9276 -168.3867,3.8106 l 17.9258,-9.1348 c -0.065,-4.2519 -0.1271,-8.5038 -0.1816,-12.7559 28.2424,0.1079 56.4882,0.1931 84.7109,1.1895 0.015,-5.7715 1.6037,-2.2053 2.8242,-0.4355 1.7652,-1.226 4.3201,-2.9991 7.0274,-4.877 -2.1716,1.5517 -4.5023,3.1864 -7.002,4.9102 0.3869,0.5553 0.7356,0.9265 0.9824,0.7421 3.2379,-2.4189 4.6828,-3.511 7.5742,-5.6738 0.033,-2e-4 0.066,3e-4 0.1,0 -2.8642,2.297 -5.2967,4.298 -6.6797,5.5664 -1.9289,1.769 5.2212,-0.3675 7.832,-0.5508 11.9821,-1.7345 23.9498,-3.5444 35.916,-5.3515 17.4742,-0.1759 34.9482,-0.3763 52.4199,-0.6485 z m -98.1445,5.9161 c -0.01,-0.012 -0.017,-0.021 -0.025,-0.033 -4.2947,2.9826 -6.1825,4.3008 -1.0976,0.8125 0.3914,-0.2686 0.7396,-0.515 1.123,-0.7793 z"
         style="opacity:1;fill:#ff7f2a;fill-opacity:1;stroke:none" />
      <path
         inkscape:connector-curvature="0"
         id="path4271"
         d="m -1673.8551,-2405.1925 c -0.084,0.2477 -0.1748,0.4928 -0.2598,0.7402 10.0765,5.2152 19.9299,10.4075 28.2852,15.3457 0.2647,-0.3981 0.55,-0.7745 0.8848,-1.0996 1.3725,-1.3328 1.1468,-0.4465 0.061,1.6582 0.8146,0.4863 1.6075,0.9684 2.3906,1.4492 2.5015,-0.095 3.8669,0.5884 3.7383,2.3536 0.7803,0.5063 1.5294,1.007 2.2656,1.5058 -0.086,-7.2463 -0.1795,-14.4911 -0.2597,-21.7383 -0.679,-0.035 -1.3569,-0.063 -2.0313,-0.059 -11.6895,0.083 -23.3898,0.2901 -35.0742,-0.1562 z m 35.0996,20.4473 c -1.1952,-0.7756 -2.4488,-1.5618 -3.7383,-2.3536 -0.9701,0.037 -2.1105,0.1899 -3.4121,0.4512 -0.7193,1.2898 -1.6991,2.9574 -2.666,4.6074 -0.509,1.4146 -1.1201,2.6884 -2.0684,3.543 -6.7167,11.3833 -14.8274,25.1579 -5.2519,15.5469 11.8094,-11.8533 16.9027,-18.5827 17.1367,-21.7949 z m -11.8848,6.248 c 0.7462,-1.2645 1.3833,-2.3738 2.0684,-3.543 0.5027,-1.397 0.929,-2.9079 1.4473,-4.3457 -9.0323,2.0915 -24.4064,8.3518 -41.2793,14.6055 -1.0262,1.8051 -2.0986,3.5903 -3.2129,5.3574 9.969,-2.9076 22.6078,-6.529 39.2539,-11.1113 0.6838,-0.1882 1.2411,-0.529 1.7226,-0.9629 z m 14.461,19.2305 c -3.5895,0.7351 -7.9423,1.3327 -13.1582,1.7773 -25.0117,2.1321 -36.4867,4.9186 -43.5547,5.7676 0.1871,14.3885 0.3737,28.777 0.5371,43.166 -8.3172,0.055 -16.636,0.2267 -24.9492,0.2969 -10.3178,0.094 -20.6369,0.1472 -30.9551,0.1797 -1.714,-1.5848 -3.4678,-2.8708 -5.4492,-2.25 -2.2586,0.7075 -4.4968,1.4701 -6.7227,2.2695 -4.55,0.01 -9.1003,0.021 -13.6504,0.021 -12.433,0.01 -24.8643,-0.1663 -37.2968,-0.2383 -8.6811,-0.1055 -17.3634,-0.09 -26.0332,0.3711 -9.6017,0.9358 -19.1658,2.1769 -28.7754,3.0352 -5.0309,0.1066 -10.1222,0.5896 -15.1953,0.7285 -0.8261,-0.017 -1.6526,-0.027 -2.4786,-0.047 -1.5066,-0.037 -3.2527,-0.9688 -4.5195,-0.1524 -0.037,0.024 -0.074,0.05 -0.1113,0.074 -0.4649,-0.032 -0.9307,-0.051 -1.3946,-0.096 -60.7743,40.9052 -63.2601,35.9502 -36.6289,35.2441 2.1102,0.025 4.2222,0.05 6.3301,0.029 l -13.4043,6.9512 c 0.5508,4.3327 0.9774,8.6829 1.6524,12.998 1.2031,7.6904 2.5003,15.3589 3.8144,23.0235 -1.1366,2.4337 -0.4349,5.3327 1.3145,7.6601 2.6153,15.197 5.209,30.3947 7.2148,45.7149 4.4893,34.2898 4.9049,43.3405 7.9727,78.1933 5.7327,75.0552 7.1736,150.3443 7.8984,225.586 0.791,78.7798 -0.067,157.563 1.8008,236.3281 1.0067,39.4579 5.4777,78.6903 10.0449,117.8574 1.1384,10.4605 0.017,18.7558 10.2149,24.2148 12.3812,2.7106 25.2155,-0.017 37.5429,-1.7695 3.4854,-0.4954 3.2844,-0.4619 5.2793,-0.748 -0.015,9.0126 0.2231,19.8016 5.291,22.1601 0.9396,0.4374 2.0717,0.065 3.1075,0.098 15.2872,-4.1703 31.1339,-5.8708 46.6875,-8.9063 25.7009,-5.9008 51.4707,-11.2486 77.6386,-14.5625 10.8581,-1.4893 21.8524,-1.5053 32.7227,-2.8496 1.5979,-0.1976 8.9071,-1.2275 10.9805,-2.4531 5.6189,-3.3213 11.1938,-6.7125 16.7578,-10.125 14.6939,-4.4634 28.0568,-10.9357 35.0058,-21.6621 0.3646,-0.2242 0.7271,-0.4518 1.0918,-0.6758 0.059,-0.4426 0.082,-0.8693 0.076,-1.2832 2.3251,-4.2369 3.712,-9.0836 3.8535,-14.6855 -0.044,-1.6626 -0.082,-3.3258 -0.125,-4.9883 0.4073,-3.4132 0.3727,-6.8632 0.5156,-9.0196 0.2767,-4.1757 0.448,-8.3582 0.6719,-12.5371 1.4475,-41.7258 0.9349,-83.4824 0.7598,-125.2226 -1.7214,-41.452 -0.7937,-20.3048 -2.8028,-63.4395 l -1.2011,0.6192 c 0,-3.5653 0,-7.1298 0.01,-10.6954 -0.024,-37.2117 0.7302,-74.42 0.8282,-111.6308 -0.07,-49.2492 -5.9119,-98.2911 -11.4532,-147.1602 -4.5778,-35.417 -6.1716,-71.4195 -15.1211,-106.1172 -0.1506,-0.4948 -0.2808,-0.9938 -0.4238,-1.4902 -0.5765,-62.3848 -0.8825,-124.7751 -1.6152,-187.1426 -0.2473,-10.8016 -0.4306,-21.6091 -0.5918,-32.4179 z m -243.3223,89.5976 c 8.488,0.016 16.9774,0.2048 25.4609,0.5684 -5.4157,2.121 -10.7516,4.4517 -15.9687,7.0722 -2.7,1.6088 -5.4101,3.2017 -8.1172,4.7989 -0.4947,-4.1439 -0.9489,-8.2907 -1.375,-12.4395 z m 23.1094,22.2793 c -0.033,1.1003 -0.069,2.2005 -0.098,3.3008 -2.586,-0.3994 -5.1687,-0.8181 -7.748,-1.2578 2.6082,-0.7061 5.2246,-1.3833 7.8457,-2.043 z m 111.3769,3.9805 c 4.5764,2.8544 9.0998,5.7811 13.4786,8.9023 -5.0812,-0.2315 -10.1626,-0.4654 -15.2422,-0.7246 -0.3344,-0.1 -0.6677,-0.203 -1.002,-0.3027 0.9635,-0.6811 1.9218,-1.3697 2.8867,-2.0488 0.024,-1.9465 -0.03,-3.8876 -0.1211,-5.8262 z m -6.0859,5.5605 c 0.087,0.031 -0.4563,0.4649 -1.1269,0.9688 -0.1857,-0.056 -0.3711,-0.1121 -0.5567,-0.168 0.4321,-0.2173 0.8624,-0.4379 1.2949,-0.6543 0.2292,-0.1146 0.353,-0.1591 0.3887,-0.1465 z m 53.666,35.336 c 1.2127,7.4781 2.995,14.7864 4.6328,22.3203 1.2394,13.3756 0.8914,26.732 1.1192,40.1465 0.1557,1.8241 0.3558,3.641 0.5781,5.455 0.3429,113.4897 0.3189,226.9796 -0.625,340.4668 -0.6824,62.1921 -1.7888,124.3779 -3.5488,186.5489 -0.1722,7.2111 -0.438,14.4205 -0.6368,21.6308 l 36.8536,-18.7793 c -0.098,16.905 -0.1598,33.8095 -0.1407,50.7149 0.036,5.7006 0.1095,11.4101 0.088,17.1172 -3.7627,0.2314 -7.5057,0.5408 -11.207,1.0332 -32.1498,0.6852 -64.3281,1.7002 -96.3438,4.8847 -7.2473,0.79 -14.4911,1.7822 -21.7382,2.7598 -0.1156,-0.8872 -0.2321,-1.7786 -0.3496,-2.6641 -7.4901,-66.7408 -15.1804,-133.4707 -21.295,-200.3535 -3.9007,-52.1474 -8.8191,-104.4866 -6.3339,-156.8262 -0.1769,0.076 -0.3544,0.1507 -0.5313,0.2266 0.048,-0.477 0.085,-0.9557 0.1426,-1.4316 0.1064,-0.8759 1.3077,-3.0129 0.5312,-2.5938 -8.3291,4.4959 -16.5159,9.2446 -24.6621,14.0664 -0.719,0.2996 -1.4396,0.596 -2.1582,0.8965 -5.2536,-57.2181 -9.8642,-114.5127 -11.6758,-171.9258 3.2845,-0.6927 10.0446,-6.1407 23.0547,-17.5254 28.9094,-5.4773 28.081,-6.8654 26.9414,-24.2695 0.2862,-0.8406 0.1618,-1.8204 -0.1699,-2.8691 -0.077,-1.3735 -0.1544,-2.7844 -0.207,-4.3418 -0.5211,-31.5421 -0.59,-63.0889 -0.2481,-94.6328 8.1987,0 16.3977,-0.03 24.5957,0.051 2.6243,0.026 5.2476,0.087 7.8711,0.1563 1.3858,0.037 3.0222,0.9573 4.1563,0.1601 2.2481,-1.5801 4.4729,-3.1919 6.6855,-4.8203 14.1433,-0.014 16.5627,-0.033 33.3906,0.068 4.9706,0.03 10.2455,1.8348 14.9102,0.1191 1.3443,-0.4944 3.1772,-1.1309 4.7813,-1.6992 3.899,0.5032 6.0201,0.8251 7.457,1.0645 -1.5813,-0.3627 -3.7137,-0.9757 -5.2988,-1.8321 2.907,-1.022 6.0166,-2.1324 9.3808,-3.3222 z m -4.082,5.1543 c 2.16,0.4953 2.7884,0.4645 0,0 z m -152.0723,533.0507 c 3.007,29.409 5.927,58.8229 8.5586,88.2637 -4.0218,-27.0332 -7.2314,-54.1797 -8.3222,-81.5273 -0.088,-2.2454 -0.1566,-4.4909 -0.2364,-6.7364 z m 238.9434,121.6309 c -0.1134,0.072 -0.2302,0.1461 -0.3477,0.2207 0,-0.085 0.07,-0.1511 0.2461,-0.209 0.033,-0.011 0.068,0 0.1016,-0.012 z"
         style="opacity:1;fill:#ff7f2a;fill-opacity:1;stroke:none" />
      <path
         inkscape:connector-curvature="0"
         id="path4275"
         d="m -863.43504,-2380.7726 c -5.56365,3.2064 -11.20602,6.2883 -16.84888,9.3678 -1.35089,-2.0997 -2.81337,-3.628 -3.72124,-3.2341 -16.56112,7.1853 -31.76477,17.1657 -47.64695,25.7479 -9.76242,6.6416 -18.41227,14.6628 -26.45186,23.2968 -10.02345,11.0362 -19.7939,22.3327 -31.5037,31.6751 -5.6619,4.6208 -11.38853,9.1793 -17.05553,13.8064 -1.3218,0.01 -2.6432,6e-4 -3.9648,0 -1.2591,-0.024 -2.5177,-0.044 -3.7767,-0.072 -1.4593,-0.033 -3.1417,-0.8966 -4.3781,-0.1209 -0.045,0.028 -0.089,0.058 -0.1344,0.086 -0.6481,-0.02 -1.296,-0.034 -1.9438,-0.06 -0.1872,0.3856 -0.3943,0.7654 -0.6099,1.1441 -28.242,-5e-4 -56.4834,-0.112 -84.7249,-0.3041 -6.3518,-0.032 -12.7033,-0.096 -19.0547,-0.1731 -1.1011,-0.028 -2.2041,-0.051 -3.3063,-0.076 -0.4584,0.9591 -0.9356,1.9081 -1.4532,2.8359 -3.0806,5.523 -20.1385,10.9139 -21.8722,11.6879 -13.3786,0.1991 -16.8272,1.0794 -22.0115,-4.7091 -1.9399,1.424 -3.8775,2.8504 -5.8011,4.2925 -0.7275,-0.01 -1.455,-0.015 -2.1823,-0.023 l -8.8874,6.4581 c 2.2084,-4.558 4.5354,-9.059 6.9117,-13.5309 0.452,-0.8506 2.0055,-3.6447 3.355,-6.0767 -3.1077,-4.508 -7.0094,-10.2957 -12.7027,-18.2181 -2.1414,-2.9798 -0.1372,-7.3381 -0.099,-11.0074 0.023,-2.2429 0.072,-4.2761 0.1613,-6.2261 -1.2345,2.2433 -2.4628,4.4905 -3.7027,6.7301 1.1491,-3.1706 2.4435,-6.5926 3.9429,-10.4262 0.2828,-3.1619 0.7739,-6.214 1.6162,-9.5878 -0.6089,-1.2718 -1.2049,-2.5266 -2.1874,-4.5294 -4.3296,-7.8768 -7.1184,-16.7765 -9.9003,-25.3279 -1.2179,-0.7923 -2.4637,-1.669 -3.7985,-2.7048 -0.076,-0.059 -0.147,-0.1218 -0.2218,-0.1815 -8.6049,17.3613 -16.6603,34.9919 -24.115,52.8567 -9.3912,22.5062 -12.0651,31.5916 -19.6007,53.9084 -1.0292,3.5133 -1.9715,7.0444 -2.8745,10.5841 -12.2844,7.1705 -24.7196,14.1124 -36.3001,22.3492 -1.4921,1.0613 -0.6805,3.599 -1.0635,5.3895 -2.0557,9.6084 -3.7739,19.2832 -5.4567,28.9686 -1.9635,7.6902 -2.0231,15.7456 -3.5297,23.5001 -0.675,3.4743 -1.7486,6.8592 -2.5771,10.3001 -2.2031,8.8672 -3.8226,17.8366 -4.7965,26.9156 -0.626,3.4935 -1.3932,6.955 -2.3318,10.3623 -0.3887,0.8193 -0.7765,1.6443 -1.1626,2.4764 0.9566,-43.58 1.4372,-87.1689 2.1101,-130.7541 0.2794,-24.5738 1.3126,-49.1312 1.6884,-73.7023 0.4333,-11.7952 -0.3331,-23.5112 -3.2542,-34.956 -6.0928,-15.5659 -17.4231,-6.1313 -30.279,5.8027 -1.1885,0.029 -2.1091,0.049 -3.5431,0.081 -28.1807,0.6501 -56.3726,0.5308 -84.5569,0.2134 -21.8158,-1.5877 -55.2617,2.9109 -57.3608,32.4629 -0.035,1.0169 -0.054,2.034 -0.086,3.051 -1.9917,1.5521 -4.0818,3.1659 -6.4109,4.9257 -0.5161,0.3898 1.2124,0.4809 1.8513,0.5813 0.3306,0.052 0.6623,0.092 0.9946,0.1311 -0.1753,0.2004 0.075,0.1765 0.5107,0.055 0.9598,0.098 1.9228,0.1685 2.8846,0.2503 -0.1643,6.6096 -0.2657,13.2208 -0.326,19.8326 -3.3167,2.2143 -6.739,4.4326 -10.3539,6.5823 -0.2057,1.0008 -0.5054,1.9865 -0.6166,3.0021 -0.2007,1.8356 -0.3196,3.7004 -0.3998,5.5761 l -28.4309,14.4868 c 1.486,39.686 1.3438,79.4164 1.4985,119.1249 0.037,37.4472 0.071,74.8944 0.1748,112.341 -0.2905,1.2472 -0.5857,2.4934 -0.8652,3.7431 -3.2657,12.6211 -4.0285,25.3646 -3.9984,38.3195 0.1611,29.3632 0.4732,58.7251 0.6282,88.0883 0,32.1522 0.1623,64.3032 0.3042,96.4548 -0.2684,4.2722 -0.5428,8.5434 -0.8283,12.8151 -2.1515,29.9789 -4.5742,59.938 -6.9099,89.9028 -0.6476,7.198 -0.6428,14.4218 -0.7022,21.6403 0.01,8.3133 0.2884,16.6218 0.3478,24.9348 0.195,14.2875 0.042,28.5745 -0.012,42.8623 -0.303,12.7342 -0.24,25.3653 1.6481,37.975 2.0582,12.4572 3.7146,24.9793 4.6502,37.5719 0.632,1.35 0.9897,2.8666 1.8952,4.0506 6.3979,8.3643 23.5532,7.7256 32.9518,8.2404 17.4775,0.633 34.9699,0.3113 52.4534,0.1915 7.5149,-0.071 15.0311,-0.091 22.5459,-0.087 15.5978,4.1479 31.3766,7.3394 47.4688,9.1125 11.9325,0.3435 24.487,3.268 36.1691,-0.257 15.3081,-9.4075 31.0873,-18.0893 45.925,-28.2227 1.0663,-0.7283 0.7087,-2.4896 0.9122,-3.7648 1.7558,-11.0035 0.5059,-23.0099 0.3007,-34.0389 -0.1205,-4.1949 -0.1707,-8.3891 -0.1915,-12.5833 35.7357,-12.0351 36.0944,-8.6984 34.6873,-28.8627 7.1789,6.666 14.4936,13.1926 21.6084,19.9267 5.9132,5.6526 11.7692,11.3712 17.7762,16.9245 6.9355,5.051 14.65,8.7556 21.7663,13.5594 6.6956,4.3432 12.1518,10.2331 17.825,15.7804 5.6078,5.3448 9.9553,11.8135 15.6796,17.0303 8.3071,5.8964 19.3556,4.8929 29.0677,5.0871 4.3711,0.039 8.7429,0.053 13.1142,0.058 1.5384,1.7014 3.0255,3.4485 4.42,5.2888 l 8.9243,-5.3056 c 6.9255,-0.022 13.8499,-0.053 20.7751,-0.072 12.7168,-0.5904 25.4152,-1.4588 38.1246,-2.1571 0.5805,0.3874 2.4692,0.1466 4.6822,-0.247 3.1988,-0.1633 6.3984,-0.3166 9.5997,-0.4435 11.922,-0.3742 23.85,-0.5255 35.77763,-0.5444 3.0601,0.013 6.2211,-0.1424 9.4299,-0.467 3.3433,-0.026 6.6893,-0.053 10.0314,-0.083 11.62192,-0.059 23.2433,-0.097 34.86538,-0.1193 0.032,8.2644 0.008,16.5288 -0.11761,24.7937 -0.16487,9.8652 -0.18784,12.5773 -0.41496,21.7966 -0.0497,2.0184 -2.08324,6.7085 -0.17304,6.0547 0.059,-0.021 0.11248,-0.037 0.17136,-0.057 -1.28229,12.2175 -2.10636,10.5949 21.50422,-6.7049 23.52161,-6.5914 24.28514,-4.6278 24.56015,-17.237 0.67524,-0.6475 0.41545,-1.7561 0.0689,-2.9114 0.0201,-0.9176 0.0296,-1.5688 0.0638,-2.6192 0.37334,-7.7034 0.97646,-15.3889 1.53554,-23.0767 8.55584,0.034 17.1116,0.089 25.66728,0.1579 4.46926,0.087 8.93956,0.1588 13.40822,0.2722 2.84278,0.072 6.04951,1.6881 8.52608,0.2906 0.0739,-0.042 0.11614,-0.066 0.18984,-0.1075 9.74294,-0.1185 13.91246,-2.4605 26.56274,-15.0092 24.43273,-13.925 25.68334,-15.5681 15.04791,-15.2781 2.02561,-2.1456 -6.26955,0.2624 -9.35937,0.3376 -4.1516,0.1013 -8.30519,0.1676 -12.45732,0.2437 -16.78297,0.1585 -33.56509,0.2717 -50.34842,0.3864 0.84335,-0.9609 1.64725,-1.9499 2.39235,-2.9787 -0.11695,0.03 -0.24654,0.057 -0.36625,0.086 0.1743,-0.1039 0.34804,-0.2089 0.52249,-0.3125 1.39969,-1.9631 2.61015,-4.0578 3.56499,-6.3286 1.34556,-3.1999 -2.21648,-3.9734 -6.86118,-4.1462 5.39658,-5.0283 9.68112,-11.0066 12.21035,-18.0619 3.68542,-10.2805 3.47596,-21.0907 3.53308,-31.8196 -1.2942,-15.5827 -4.08141,-30.9405 -7.43912,-46.1987 1.1519,0 2.30393,-0.01 3.4558,-0.012 21.93594,0.6002 7.41934,1.0484 48.954,-29.9968 0.51527,-0.3851 0.21784,-0.8285 -0.69217,-1.3859 2.86215,-1.843 2.2991,-1.9058 -1.62625,-0.8434 -0.82403,-0.3869 -1.8035,-0.8157 -2.94507,-1.3071 -12.01237,-5.1699 2.75168,1.3908 -10.97891,-4.7712 -16.91311,-8.3864 -33.40504,-17.3668 -48.08375,-29.4255 -1.55751,-1.1048 -3.12389,-2.1979 -4.68388,-3.2996 -0.51915,-2.3383 -1.09536,-4.6292 -2.01771,-7.6054 -0.25504,-0.8229 -0.27903,-2.2801 -0.52752,-3.2374 0.84946,-4.1952 -1.38818,-3.1104 -9.73066,2.2311 -31.8594,-22.1772 -64.35749,-43.4293 -98.35992,-62.2329 -46.9749,-26.9363 -93.7499,-54.185 -139.8849,-82.5442 -5.4652,-3.3108 -10.9247,-6.6346 -16.3785,-9.9658 -1.9873,-3.686 -3.989,-7.3659 -6.0178,-11.0311 2.352,-0.7399 3.4725,-1.4488 3.8036,-3.0727 0.7666,-0.385 1.5084,-0.7655 2.3032,-1.1559 1.5932,-0.7823 3.5579,-13.1748 4.8536,-14.9588 2.2577,-6.1372 4.4024,-12.3945 7.4694,-18.1627 1.5996,-2.4949 3.2027,-4.9874 4.8065,-7.4794 3.6354,-5.0174 7.344,-9.9821 10.9907,-14.9908 40.4188,-21.3541 53.4898,-28.3601 74.8666,-66.826 2.2836,-0.765 4.5619,-1.5487 6.8242,-2.3806 29.0613,-11.6761 56.5161,-28.207 80.60213,-48.2249 14.23009,-13.2362 27.34937,-27.5928 39.36279,-42.8773 4.62079,-6.3529 7.9427,-10.5682 11.87604,-17.5075 10.3141,-18.1964 16.46726,-38.402 22.41646,-58.3252 2.28938,-9.285 4.46355,-18.609 6.43782,-27.9689 0.58248,-0.1103 1.15113,-0.2861 1.69682,-0.5611 10.56795,-0.01 17.0389,-2.3568 28.64596,-14.9135 25.49935,-13.6942 24.98859,-15.5784 12.89076,-15.273 2.50894,-3.2302 -8.47582,0.3008 -12.67572,0.383 -5.82307,0.1139 -11.64689,0.1619 -17.4705,0.2436 -2.54083,0.028 -5.08136,0.046 -7.62223,0.071 3.22173,-21.5715 4.79044,-43.3422 3.43227,-65.3224 -0.22052,-4.4217 -0.30384,-9.0544 -0.56448,-13.6887 3.97313,-7.0145 7.96207,-14.0324 12.14652,-20.9213 1.02873,-1.6936 4.46481,-6.2621 3.96148,-7.3013 -0.9435,-1.9481 -3.13934,-2.9802 -4.70909,-4.4705 z m -11.83571,817.6674 c -0.0533,0.075 -0.10238,0.1524 -0.15624,0.2268 0.61537,-0.1567 1.20099,-0.3209 1.73209,-0.4939 2.35621,-0.7674 4.11028,-2.7671 6.16567,-4.1513 -2.61008,1.4048 -5.18127,2.8986 -7.74152,4.4184 z m -481.16345,-765.7633 c 0.9337,1.3243 2.015,3.1987 0.588,1.3557 0.1559,0.5663 0.3004,1.134 0.4418,1.702 -0.1427,0 -0.2857,0.01 -0.4284,0.01 -0.6139,-0.5085 -1.0637,-1.3029 -1.3272,-2.4192 0.2191,-0.1995 0.4981,-0.4427 0.7258,-0.6485 z m -4.1245,19.5638 c -0.108,0.4161 -0.237,0.8267 -0.3897,1.2314 -0.672,0.01 -1.3441,0.01 -2.016,0.014 0.669,-0.3407 1.6229,-0.8421 2.4057,-1.245 z m 409.30584,3.5465 c -7.26271,8.6875 -14.53787,17.3628 -21.81837,26.0352 -3.27638,-0.015 -6.55344,-0.027 -9.82974,-0.053 10.0164,-9.2732 20.96808,-17.4742 31.64811,-25.9832 z m -184.65234,25.9344 c -0.3862,0.3913 -0.7741,0.7799 -1.1473,1.1844 -1.3317,1.4436 0.4006,0.5195 2.7887,-1.1592 -0.547,-0.01 -1.0938,-0.018 -1.6414,-0.025 z m -269.0932,1.8144 c 6.0887,0.01 12.1782,0.032 18.2667,0.083 3.688,0.028 7.9221,-0.6156 11.1873,1.3978 2.9932,5.8493 0.9845,13.0704 1.8043,19.3437 0.3917,9.598 0.4883,19.3754 2.9871,28.7064 2.5766,6.8771 4.2939,13.8746 3.8019,21.301 0,8.3166 -0.1841,16.6323 -0.074,24.9482 0.043,9.148 -0.042,18.2979 0.2334,27.4431 0.382,10.7494 1.1895,21.5042 3.0779,32.1051 2.6915,18.7916 4.6777,37.6766 4.0404,56.7006 -0.07,16.1501 -0.1886,32.3013 -0.205,48.4516 -0.032,8.2653 -0.2209,16.5425 -0.079,24.8088 -11.5013,8.8515 -5.8308,7.5625 0.049,2.0933 0.047,1.9428 0.1079,3.8854 0.2033,5.8264 3.3458,28.8769 30.8553,2.7508 51.3312,-14.045 3.2401,-4.6608 3.2973,-10.5259 4.326,-15.9534 0.4345,-5.6045 0.3484,-11.2522 1.2785,-16.8153 1.4727,-8.3659 3.8767,-16.4717 6.6009,-24.5131 3.2569,-10.7931 6.6406,-21.5433 11.3568,-31.8111 2.0688,-4.5259 4.2367,-9.0035 6.4043,-13.4805 -3.0973,15.5694 -6.2695,31.1246 -9.1663,46.7364 -2.7476,18.2906 -6.3783,36.4397 -8.7948,54.7803 l 45.8577,-22.6668 c 2.0395,-18.0793 5.0648,-36.0161 7.8524,-53.9907 5.0406,-28.2672 11.3026,-56.3029 15.7804,-84.6695 2.7675,-19.0993 4.9391,-38.3366 7.7667,-57.4515 6.2792,0.013 12.5571,0.032 18.8364,0.016 6.9195,0 13.8391,0.025 20.7583,-0.064 11.0632,-0.064 22.1283,-0.074 33.1887,0.2385 11.1889,0.3893 22.3736,1.0261 33.4676,2.6091 9.2192,1.1285 18.5375,0.5127 27.7841,1.4868 4.594,0.4709 9.1429,1.1808 13.6821,1.9472 -19.4933,23.757 -38.2241,48.1562 -57.3474,72.2104 -40.5436,52.0725 -81.1551,104.4865 -116.0034,160.5827 -1.6334,-1.4055 -3.2894,-2.7872 -4.9948,-4.1177 -1.5082,-1.0094 -3.0173,-2.016 -4.5242,-3.0274 -1.1085,-0.7439 -2.118,-2.8124 -3.3231,-2.2378 -10.8728,5.1846 -62.6842,17.3258 -41.0949,32.4495 6.3798,4.4005 12.9758,8.4589 19.9267,11.8879 2.9834,2.7502 5.8589,5.6185 8.6537,8.5731 -0.053,0.097 -0.1069,0.1934 -0.1595,0.2906 -0.3293,0.6449 -0.668,1.2851 -0.9996,1.9287 l -7.199,4.6923 c 0.9891,0.5833 1.9739,1.1741 2.9619,1.7589 -0.3015,0.6115 -0.5558,1.2444 -0.7577,1.8884 -0.2226,0.7102 -0.3582,1.4323 -0.4401,2.1605 -1.6275,3.1551 -3.2362,6.3198 -4.7712,9.5206 -2.281,4.7566 -11.5603,14.5232 -6.285,14.5238 1.4079,2e-4 2.7594,-0.024 4.0824,-0.06 -4.0377,2.8506 -8.9548,5.8989 -6.4983,4.5562 2.9384,-1.6065 5.9265,-3.1349 8.9276,-4.6436 1.5777,-0.073 3.0968,-0.1724 4.558,-0.3007 0.032,2.2589 0.069,4.5168 0.1192,6.7755 0.2474,7.5622 -0.5952,16.5831 4.6251,22.7004 5.0786,5.3444 11.2027,9.7297 16.985,14.2734 1.1715,0.956 2.3244,1.9317 3.4742,2.9115 -13.441,19.2751 -26.4563,38.8499 -39.0066,58.7266 -2.7417,4.5909 -5.4623,9.1958 -8.1581,13.8165 -9.8084,-7.9187 -20.427,-14.6702 -32.7184,-18.5339 -2.3137,-0.5479 -4.7498,-2.5702 -6.9401,-1.6447 -10.7289,4.5322 -53.7761,14.5699 -51.3128,33.6254 0.3245,2.5107 1.5653,4.8424 2.5873,7.1015 6.0057,10.2871 14.11,19.2026 22.3963,27.6884 0.4039,0.393 0.8146,0.7791 1.2196,1.1709 0.1132,11.618 0.2299,23.2352 0.2806,34.8536 0.617,28.3284 0.8278,56.6673 0.4033,85.0005 -0.286,16.1396 -0.6224,32.2768 -0.5057,48.4197 -0.085,4.2917 -0.066,10.2714 -0.373,16.3062 -7.0706,0.06 -14.1412,0.1168 -21.2119,0.1496 -2.9953,-0.8047 -5.9838,-1.6472 -8.9629,-2.5385 -17.9605,-4.6258 -39.9638,-9.5265 -56.462,-18.0736 -1.441,-0.7466 -2.6981,-1.8043 -4.0471,-2.7065 -0.6156,-0.7546 -1.3954,-1.4 -1.8464,-2.2631 -1.7893,-3.4238 0.3357,-8.3008 -0.4671,-11.9314 0.02,-5.6637 -0.019,-11.3265 -0.062,-16.99 -0.1067,-8.5836 -0.092,-17.169 -0.039,-25.753 0.04,-11.0447 -0.3422,-22.0842 -0.5308,-33.1266 -0.4929,-33.162 -0.8244,-66.3257 -0.741,-99.4922 0.098,-35.2607 0.5,-70.5186 0.6368,-105.7789 0.035,-10.3562 0.056,-20.7111 0.1545,-31.0669 l 10.9386,-5.796 c -2.4671,-13.7124 -4.9911,-27.4293 -6.3269,-41.3116 -1.251,-17.4591 -1.2287,-34.9154 -1.0769,-52.3947 0.5406,-1.0362 0.6715,-2.58 0.635,-4.9376 0.01,-0.01 0.018,-0.01 0.027,-0.014 0.1631,-0.08 0.054,-0.2904 -0.042,-0.5023 -0.035,-1.4885 -0.1127,-3.2145 -0.2084,-5.4348 -0.045,-1.0524 -0.076,-2.1047 -0.1176,-3.1568 -0.032,-1.3031 -0.065,-2.6062 -0.097,-3.9094 -0.046,-2.3783 -0.085,-4.7567 -0.131,-7.135 -0.065,-14.6644 -0.1283,-29.33 -0.1277,-43.9946 0.014,-5.9189 0.018,-11.8379 0.028,-17.7578 5.7858,-3.8135 7.6578,-8.6748 8.0675,-21.7629 0.8814,-14.416 2.0902,-28.8206 2.2008,-43.2722 -0.345,-32.8715 -0.5762,-65.7471 -0.4403,-98.6203 0.126,-10.5746 0.2319,-21.1597 0.4403,-31.744 6.7169,-0.036 13.4346,-0.064 20.1517,-0.064 6.0887,-0.011 12.1765,-0.019 18.2652,-0.012 z m -82.9123,2.6847 c -1.4078,0.8114 -2.8157,1.623 -4.2235,2.4344 0.5487,-0.3573 3.135,-2.0765 3.6691,-2.268 0.1807,-0.065 0.3684,-0.1143 0.5544,-0.1664 z m 483.3425,34.8301 c -0.5104,0.7226 -1.0126,1.4497 -1.5204,2.1739 -2.2218,-0.2767 -4.4411,-0.5504 -6.6344,-0.882 -2.288,-0.282 -4.5668,-0.6186 -6.841,-0.9811 0.074,-0.085 0.1477,-0.1704 0.2217,-0.2553 4.9248,-0.021 9.8493,-0.041 14.7741,-0.056 z m 67.14187,0.086 c 5.07971,0.032 10.15981,0.07 15.23944,0.1143 -2.82656,16.7978 -6.77626,33.4831 -11.21579,50.1972 -6.58987,19.7769 -13.049,40.068 -24.22416,57.8581 -3.33091,5.3026 -8.7276,11.9938 -12.61525,16.9849 -12.19278,14.9188 -25.17028,29.0859 -39.64001,41.8139 -10.3935,3.8053 -21.0098,6.9714 -31.5541,10.3288 3.6409,-9.4631 6.8821,-19.0792 10.0213,-28.7333 6.3672,-10.7186 12.1809,-21.7289 17.5461,-32.967 15.66333,-6.1274 31.48853,-12.7291 39.11755,-27.2331 1.71167,-6.5901 1.22483,-13.5716 1.26001,-20.3315 -0.0243,-4.3488 -0.0648,-8.6971 -0.1008,-13.0453 4.9154,-7.5774 9.7907,-15.1803 14.63631,-22.8029 8.94188,-12.6324 14.62457,-21.3894 21.5294,-32.1841 z m -344.60837,21.6185 c -0.9416,0.552 -1.8402,1.0845 -2.8208,1.6548 0.6982,-0.4969 1.272,-1.2478 2.0934,-1.4918 0.2204,-0.065 0.4652,-0.1192 0.7274,-0.163 z m 235.8004,10.1741 c 6.1295,0.7146 12.2665,1.4659 18.124,3.2929 -5.523,8.6668 -10.9229,17.4126 -16.2239,26.22 -14.2723,15.3094 -27.0409,31.9033 -36.8746,50.8323 -5.719,11.0765 -11.2455,22.2687 -16.9129,33.3835 -4.0953,4.8271 -7.4236,10.2467 -10.0867,16.0527 -1.1869,2.991 -2.2248,6.0323 -3.2424,9.0787 -9.9157,17.7464 -12.3411,20.9033 -23.4363,38.2675 -4.1385,6.4769 -8.2633,12.9631 -12.3952,19.4445 -1.3482,2.1678 -2.7015,4.3352 -4.0538,6.5017 -0.023,0.025 -0.046,0.051 -0.069,0.076 -24,9.1243 -47.0064,21.3131 -67.8625,36.3538 36.9289,-67.4896 84.0913,-128.6907 131.8225,-188.8086 13.7013,-16.9218 27.3454,-33.9023 41.2108,-50.6946 z m -308.0831,228.1093 c -0.562,0.4239 -1.227,0.8368 -2.0328,1.2466 0.7037,-0.4392 1.3503,-0.8265 2.0328,-1.2466 z m 184.0828,5.6936 c -4.7276,7.9415 -9.3195,15.9608 -13.6552,24.1251 -0.405,0.7625 -0.8604,1.6378 -1.3037,2.4864 -4.4736,-3.4439 -9.2863,-6.5008 -14.2768,-9.3543 9.0764,-5.2498 18.1324,-10.535 27.1289,-15.9199 0.7145,-0.4276 1.4138,-0.877 2.1068,-1.3373 z m -50.3182,142.2235 c 2.9289,1.8444 5.9526,3.473 9.2703,4.4218 4.6468,1.3801 8.4765,4.3312 12.8169,6.4194 6.357,1.7519 11.3195,5.9441 17.1445,8.8419 14.2534,6.8316 26.9895,16.4152 39.7846,25.5917 14.2621,10.416 27.6505,21.8507 40.6261,33.8288 5.165,4.2334 10.7358,7.856 15.4931,12.5111 0.4676,0.4746 4.8977,5.0072 5.4298,5.4012 4.6955,3.4773 10.7791,4.8712 16.2071,6.6412 20.0262,7.3081 39.1804,16.7894 57.8598,27.0264 8.68653,5.6237 23.33843,13.7309 29.44233,22.44 1.76142,2.5132 1.72596,3.9665 2.2411,6.8158 0.15278,11.9703 0.25029,23.9411 0.34105,35.912 0.11942,11.9494 0.25274,23.8982 0.29232,35.8482 -5.67547,-1.5662 -11.35557,-3.1146 -17.04037,-4.647 0.6372,-0.6064 1.2663,-1.2212 1.89,-1.8412 2.0762,-1.4435 4.1575,-2.879 6.2614,-4.279 -0.7677,0.073 -1.5426,0.1109 -2.3184,0.1394 0.3403,-0.3783 0.6855,-0.7514 1.0198,-1.1357 1.8569,-2.1351 -5.6593,-0.037 -8.4892,-0.046 -6.4589,-0.021 -12.91833,-0.022 -19.37733,-0.04 -2.4361,-0.033 -4.3677,-0.083 -6.3236,-0.1277 -1.4248,-0.4903 -2.8158,-0.7294 -4.0757,-0.071 -0.01,0 -0.01,0.01 -0.017,0.01 -9.2336,-0.082 -13.1863,0.7893 -20.5113,7.6844 -10.5829,1.3118 -21.1585,2.687 -31.7288,4.1043 -20.2822,-21.579 -42.3725,-41.3779 -64.8787,-60.6268 -25.7562,-20.8985 -53.1727,-41.0737 -86.4639,-47.5511 -0.7192,-0.067 -1.431,-0.1203 -2.1454,-0.1781 -13.3318,-13.7979 -26.7558,-27.5066 -39.9793,-41.4074 -0.5415,-4.0681 -0.6334,-9.5826 -3.0862,-10.1759 3.0314,-4.2558 6.0964,-8.4869 9.0872,-12.7715 43.816,-62.7704 -12.7989,17.4407 36.117,-51.6537 1.718,-2.352 3.4122,-4.7196 5.1106,-7.0847 z m 238.06003,220.9323 c 0.8967,-0.085 1.7854,-0.2176 2.6544,-0.4553 0.5592,-0.1531 1.04,-1.9623 0.5528,-1.6481 -1.0744,0.6929 -2.1426,1.3949 -3.2072,2.1034 z m -96.02303,-197.8388 c 13.8196,7.8951 27.6582,15.7585 41.4813,23.6479 34.5641,19.2298 67.39858,41.1988 99.18986,64.6403 0.0123,0.5479 0.0261,1.0149 0.037,1.6028 -0.0126,1.5657 -0.0171,3.1315 -0.0285,4.6973 -2.95008,-1.6143 -5.90129,-3.336 -8.87553,-5.193 -22.85336,-17.5345 -47.47343,-32.5096 -72.19873,-47.21 -20.6393,-11.2543 -38.9747,-25.7308 -57.2717,-40.3137 -0.7871,-0.6141 -1.5643,-1.2393 -2.3336,-1.8716 z m -261.4425,14.3659 c 0.1875,0 0.2157,0.058 -0.017,0.2099 -1.4978,0.978 -2.9495,1.9032 -4.3781,2.8023 0.097,-0.7318 0.4349,-1.3961 1.1643,-1.9236 0.675,-0.4882 2.6683,-1.0799 3.2307,-1.0886 z m 260.537,236.7663 c 4.8106,0.1075 9.6202,0.2561 14.4279,0.4604 -0.1842,0 -0.3685,0 -0.5527,0.01 l -1.2583,0.9324 c -3.7614,0 -7.5217,0 -11.283,-0.01 -0.4448,-0.4634 -0.8873,-0.9283 -1.3339,-1.3911 z m -217.7504,18.0552 c -1.5485,1.2959 -3.2423,2.2343 -5.0366,2.9114 1.6785,-0.9709 3.3539,-1.948 5.0366,-2.9114 z"
         style="opacity:1;fill:#ff7f2a;fill-opacity:1;stroke:none" />
      <path
         inkscape:connector-curvature="0"
         id="path4295"
         d="m -155.73231,-2321.3128 c -2.3258,0.1887 -6.38754,4.3078 -15.61353,11.3947 -62.56082,2.3689 -125.11331,5.922 -187.17877,14.4458 -9.81715,1.3306 -19.66497,2.4515 -29.45142,3.9918 -20.91384,3.2918 -37.17263,6.8666 -57.89329,11.3096 -9.3857,2.0125 -47.90926,10.392 -57.70364,12.8447 -8.63768,2.163 -17.16949,4.7321 -25.75375,7.0982 -10.22771,3.229 -14.55792,4.5895 -17.91189,5.6436 -12.32741,-0.1674 -24.65586,-0.2732 -36.98415,-0.3316 -11.8079,-0.4847 -23.64216,-0.644 -35.55944,-0.4166 -13.83104,-0.034 -27.66345,0.038 -41.49274,-0.1971 -0.0724,0.048 -0.14563,0.094 -0.21803,0.1418 -0.20702,-0.01 -0.41426,-0.01 -0.62125,-0.012 -0.21362,-0.01 -0.43734,-0.049 -0.66308,-0.1001 0.004,-1.3714 0.0109,-2.7429 0.0164,-4.1143 1.22503,-4.8325 3.76706,-10.8872 0.0762,-10.9765 0.0102,-1.014 0.0145,-2.0281 0.0269,-3.0421 0.0441,-1.1401 0.0888,-2.2799 0.13291,-3.4199 0.078,-0.1117 0.34634,-0.4117 0.23297,-0.336 -3.61117,2.4042 -7.36868,4.6319 -11.15423,6.8278 -38.48328,0.2628 -30.32235,2.5786 -29.73816,17.5774 0.0125,1.006 0.0167,2.0121 0.0269,3.0181 -2.31155,2.4818 -0.83608,6.4107 0.0732,10.1373 0.0361,8.2672 0.0316,16.5352 0.0448,24.8024 0.093,14.0581 0.14971,28.1212 -0.30764,42.1738 l 1.39335,-0.7109 c -0.0634,34.2425 -0.0951,68.484 -0.0642,102.7268 0.0243,37.3747 -0.20967,74.749 -0.30166,112.1233 -0.0364,11.0253 -0.0882,22.0507 -0.14636,33.0759 -0.22178,0.6504 -0.44173,1.3025 -0.66755,1.9503 -3.82881,13.7267 -7.05152,27.8054 -6.07965,42.1439 0.38863,24.9709 0.81625,49.9409 0.95429,74.9151 0.46034,48.8341 0.63616,97.6703 0.84825,146.506 -0.032,18.7539 -0.76629,37.8064 0.32109,56.5537 0.0905,1.5601 -0.53058,4.3681 -0.32856,5.9631 0.86271,-0.335 2.06025,-0.8129 3.27653,-1.2992 -0.22673,0.5718 -0.47916,1.1227 -0.76313,1.6457 -1.10605,0.205 -1.54561,0.2777 -2.29386,0.4136 0.19456,0.3507 0.51014,0.5201 1.02148,0.3883 6.02061,-1.552 10.9907,-2.6997 15.27304,-3.632 -0.46672,8.4766 -1.15499,16.9429 -1.81448,25.4088 -1.96369,6.9608 -3.85469,13.9341 -5.46586,20.9719 -9.77589,7.4263 -20.84084,13.5218 -29.49025,22.1113 -1.83085,1.2904 -3.66874,2.5686 -5.52709,3.8127 0.77494,-0.1289 1.55225,-0.2498 2.32971,-0.3673 -0.12593,0.1468 -0.25933,0.2861 -0.3838,0.4345 -2.52653,3.0109 7.8642,0.013 11.7964,-0.01 5.53678,-0.028 11.0746,-0.078 16.61113,-0.1374 l 0.27628,0 c -0.91463,6.2753 -1.91287,12.5384 -2.69858,18.8362 -2.1011,6.1212 -1.86863,13.0749 -4.40256,19.0111 -2.81666,6.7025 -3.01668,8.865 3.96349,12.7507 6.33498,1.245 12.77413,1.7752 19.23953,2.025 -1.69414,1.2321 -3.3911,2.4568 -5.09848,3.6664 -0.44078,0.3122 1.03967,0 2.37003,-0.2554 -0.0909,0.092 -0.16229,0.166 -0.25388,0.2584 -1.59954,1.6125 2.74328,0.5884 6.17971,-0.01 10.57546,-0.016 21.14798,-0.2977 31.7184,-0.6467 1.15986,-0.04 2.31977,-0.083 3.47964,-0.1239 38.63789,-0.077 77.27559,-0.2065 115.91353,-0.2689 54.39216,0.097 108.72169,-2.9064 163.08419,-4.3876 33.04848,-0.8269 66.10741,-1.0787 99.16501,-1.12 17.46427,-0.1209 34.92916,-0.1385 52.39308,0.037 16.10802,-1.7821 31.13265,-8.7713 44.3093,-18.4226 0.12651,1.6158 0.25116,3.2318 0.37783,4.8476 5.71624,-4.0998 11.43929,-8.1912 17.19654,-12.2325 8.96358,-8.783 18.06981,-15.5504 28.10586,-18.4256 -1.483,-17.9583 -2.69648,-35.9262 -3.37807,-53.9478 -1.19243,-15.6818 0.86253,-31.5657 -1.2918,-47.1691 -0.33863,-1.2331 -0.75422,-2.4474 -1.01551,-3.6991 -0.63781,-3.0556 -1.21468,-6.1184 -1.79507,-9.18 0.0259,-12.3882 0.0695,-24.7768 0.19115,-37.1648 -0.87767,-12.5732 1.78264,-25.4653 0.13441,-37.9803 -0.62528,-3.2992 -1.77755,-6.4566 -3.10628,-9.5504 4.95808,-4.1272 11.05415,-10.1599 20.80013,-18.8661 0.7537,-0.6733 0.0271,-1.2155 -1.46951,-1.6905 -0.24248,0.4053 -0.98001,1.2504 -1.42919,1.4471 -0.45724,0.2001 -1.09234,0.3375 -1.81299,0.4331 0.97053,-0.6435 1.96927,-1.2923 3.02115,-1.9504 -2.07042,-0.6174 -5.42968,-1.1241 -8.50493,-1.6651 -6.57733,-1.0242 -13.13216,-2.1158 -19.68605,-3.1989 0.005,-0.7815 0.006,-1.5632 0.0104,-2.3446 1.62893,-1.4898 3.40917,-3.0901 5.76156,-5.1493 28.35072,-17.6144 26.22888,-12.8875 0.20908,-13.3167 -1.93803,0 -3.87585,0.01 -5.81383,0.01 -0.001,-8.5624 -0.16784,-17.1243 -0.3181,-25.6866 -0.18096,-14.878 -0.13753,-7.4365 -0.13141,-22.3204 l -39.62748,20.1908 c 0.006,14.9252 0.0504,7.4403 -0.12992,22.4549 -0.0323,1.8718 -0.0653,3.7433 -0.0986,5.6151 -20.92016,0.1136 -41.83975,0.1181 -62.7603,0.1583 -28.70339,0.05 -57.41363,0.273 -86.07981,1.9101 -13.27389,0.6637 -26.54203,1.4078 -39.80668,2.2162 -4.34512,-0.7257 -8.67075,-1.6021 -12.97768,-2.4178 -13.55945,-2.5783 -27.29046,-3.8586 -41.04322,-4.8013 -6.486,-0.4155 -12.98341,-0.5844 -19.48146,-0.5944 -2.45379,0 -4.90732,0.019 -7.36098,0.036 -8.4e-4,-0.2633 -0.002,-0.5266 -0.003,-0.79 3.83258,-0.013 7.66512,-0.041 11.49772,-0.072 7.80211,-0.036 15.60559,-0.023 23.40761,0.045 5.85406,0.3499 11.55271,-0.9844 17.24882,-2.1176 3.79825,-1.2997 7.59581,-2.6144 11.35136,-4.0382 15.14176,-0.1539 30.27979,-0.5718 45.41591,-0.9977 0.14478,0 0.28979,-0.01 0.43458,-0.013 -0.57206,0.8701 -1.11815,1.765 -1.62035,2.7031 -1.81212,1.7583 -0.91926,0.8986 -2.67618,2.5806 l 13.45707,-5.5824 c 1.97995,-0.063 3.95898,-0.1258 5.93926,-0.1926 -2.47169,1.4195 -5.15827,2.9544 -7.89712,4.5176 1.69297,-0.5974 3.46557,-0.7007 5.33146,-1.0753 3.40925,-0.9571 6.68023,-2.2271 9.86393,-3.6992 19.23195,-0.7278 38.45619,-1.8271 57.53189,-4.4025 13.7714,-9.434 28.3019,-17.8446 41.31353,-28.3016 1.49923,-1.2048 -3.82117,-3.2256 -10.23429,-4.4712 -11.94169,-2.3192 -24.24334,-2.8026 -36.23297,-4.7804 -15.68607,-1.5585 -31.3832,-2.9867 -47.08554,-4.3368 6.78669,-3.5687 13.48642,-7.2834 19.88468,-11.4978 3.14972,-2.0746 -2.77816,-6.1728 -3.47814,-6.5485 -1.417,-0.7606 -2.89356,-1.3811 -4.40256,-1.9265 1.2894,-1.11 2.63159,-2.2544 4.13225,-3.4946 19.92225,-4.537 21.12712,-1.8018 16.67535,-12.8104 0.39907,-0.2867 0.77493,-0.5638 1.18278,-0.8542 1.42206,-1.0126 -0.0539,-3.4917 -0.0747,-5.2374 -0.0873,-7.3535 -0.12196,-14.7066 -0.16129,-22.0605 -0.0425,-11.8752 9.7e-4,-23.7501 0.0657,-35.6252 0.17298,-2.2487 0.0529,-4.464 -0.21505,-6.6636 1.88843,-0.027 3.77663,-0.063 5.66448,-0.1224 18.73104,-2.2646 29.23641,-13.3206 46.10138,-27.8744 2.31771,-2 -13.71352,-9.8224 -14.04696,-9.9939 -21.74926,-12.0103 -44.75963,-20.7425 -68.50542,-27.8669 -6.0355,-1.6245 -12.1095,-3.0812 -18.21356,-4.3921 -3.02531,-2.6298 -4.49597,-3.1006 -6.89206,-1.4113 -15.67871,-3.0793 -31.53577,-5.2476 -47.43797,-6.8158 -8.4779,-0.9076 -16.98655,-0.9578 -25.49838,-0.8528 -4.11201,0.048 -8.22331,0.071 -12.33552,0.094 l -36.93635,26.8768 c 4.1222,-0.036 8.24463,-0.078 12.36687,-0.109 8.57225,-0.041 17.15072,-0.25 25.71642,0.2046 13.37698,0.8089 26.73116,2.1298 39.97245,4.1666 -0.11948,-2e-4 -0.23895,2e-4 -0.35842,0 -13.13413,0.057 -26.26857,0.021 -39.40197,-0.1315 -6.24685,-0.079 -12.49368,-0.1109 -18.74073,-0.061 -12.7816,0.2032 -25.56344,0.2158 -38.34613,0.1554 -7.47186,-0.055 -14.9423,-0.2017 -22.4145,-0.1703 -4.29271,-0.1497 -8.53871,-0.092 -12.76561,0.3226 -1.09766,0 -2.19531,-0.01 -3.29296,-0.01 -0.0216,-12.7501 0.12158,-25.5 0.32556,-38.249 7.12157,-0.044 14.24289,-0.072 21.36464,-0.072 7.78784,-0.4848 15.44139,0.7176 23.13431,1.6742 9.39627,1.4827 18.72907,0.5926 28.02672,-1.0245 7.46522,-1.5483 15.01282,-2.6173 22.60565,-3.2721 5.04562,-0.362 10.1079,-0.3863 15.16403,-0.4077 5.37025,-0.026 10.74066,0.025 16.11084,0.033 5.00356,0.3405 9.75926,-0.2052 14.41134,-2.0788 7.25404,-2.9618 14.051,-6.9214 21.06298,-10.4061 7.76922,-0.028 15.53837,-0.071 23.30755,-0.1135 14.42093,-0.091 28.84183,-0.018 43.26242,0.087 7.3889,0.066 14.77747,0.1227 22.1666,0.115 9.97139,-0.1258 19.94247,-0.1597 29.91437,-0.1657 5.72886,0.046 11.45858,0.057 17.18759,0.051 5.24521,0.034 10.48958,0.074 15.7345,0.133 1.03071,0.01 2.04305,-0.064 3.04207,-0.1927 0.76593,-7e-4 1.5323,0 2.29835,0.01 -0.0828,5.9513 -0.12962,11.9035 -0.10753,17.8566 -0.16345,16.3155 -0.21337,32.6378 -0.73177,48.9463 0.1297,-0.059 0.26007,-0.116 0.38978,-0.1747 -0.0746,0.5738 -0.16844,1.1443 -0.28673,1.7099 -0.0339,0.1623 -0.46932,0.4577 -0.32407,0.3779 5.83015,-3.2035 11.64748,-6.4309 17.46386,-9.6594 8.01421,-3.5937 16.02114,-7.2044 23.9781,-10.9227 0.16245,-0.076 -0.20862,-0.3064 -0.23446,-0.4838 -0.0808,-0.5545 -0.14362,-1.111 -0.19116,-1.6697 0.0563,-0.031 0.11242,-0.063 0.16875,-0.094 -0.12618,-3.9159 -0.22032,-7.8325 -0.2942,-11.75 0.0658,-6.6273 0.24687,-13.2558 0.18966,-19.8773 0.0486,-2.4155 0.11286,-4.8307 0.16876,-7.246 8.39376,-3.4693 16.53616,-7.8194 24.97419,-11.1333 0.17101,-4.4258 0.72048,-8.8222 1.42172,-13.1972 22.1077,-6.0938 52.739106,-18.9721 37.273868,-29.6277 -1.527747,-1.0526 -3.533508,-1.1342 -5.300088,-1.701 -8.30441,-1.0042 -16.64667,-1.5541 -25.00555,-1.8592 1.60021,-7.3573 2.95783,-14.7576 3.53787,-22.2831 -0.36308,-16.6887 -0.79363,-33.3807 -1.73086,-50.0485 -1.26353,-17.1185 -3.00342,-34.1789 -5.22243,-51.1864 29.62438,-12.8979 33.843114,-9.8063 20.84194,-19.4411 0.14355,-0.095 0.2704,-0.1763 0.41517,-0.2718 0.86549,-0.5707 0.11614,-0.5377 -1.19173,-0.3076 -0.70455,-0.5228 -1.18197,-0.8772 -1.97727,-1.4755 -7.20437,-1.2674 -14.43384,-2.3763 -21.68124,-3.3706 -0.0162,-0.1015 -0.0301,-0.2033 -0.0463,-0.3047 -1.02301,-6.6321 -2.06078,-13.2636 -3.14661,-19.8847 34.02688,-7.2058 67.79643,-15.6536 100.388112,-27.94 15.39306,-8.4861 31.4614102,-15.8484 46.1790302,-25.4581 2.17329,-1.4192 2.07004,-6.7376 -0.79747,-7.6373 -3.60507,-1.131 -15.43373,1.3082 -19.0304502,0.1777 -42.422007,0.7104 -84.835337,1.8365 -127.245482,3.051 -3.73937,0.124 -7.48015,0.2612 -11.21995,0.3898 -0.003,-0.01 -0.005,-0.02 -0.007,-0.03 -2.30976,-7.5037 -3.03622,-10.801 -5.23737,-10.6226 z m 37.05135,579.6723 c 0.0774,0.023 0.14735,0.047 0.22103,0.07 0.11028,-0.1844 0.14592,-0.3017 -0.0433,-0.1838 -0.0611,0.038 -0.11693,0.075 -0.17772,0.1136 z m -588.51762,144.7959 c -0.11008,-0.1983 -0.18092,-0.4552 -0.21954,-0.7601 -3.34725,1.2999 -3.46189,1.4291 0.21954,0.7601 z m 612.713755,-691.3848 c 9.540543,0.013 19.080948,0.074 28.621086,0.1703 -24.898451,6.7296 -50.202161,12.0687 -75.467671,17.1443 -0.15674,0.028 -0.31368,0.055 -0.47042,0.084 -1.04046,-5.6925 -2.14038,-11.3725 -3.33179,-17.0353 16.88154,-0.2629 33.76541,-0.3853 50.648795,-0.3629 z m -98.457135,1.5965 c 0.25033,6.4173 0.18808,1.7943 0.41517,16.983 0.031,2.0753 0.0481,4.1505 0.0717,6.226 -54.88304,6.3216 -110.30618,7.6947 -165.50799,8.9051 -42.1813,0.8199 -84.37012,0.893 -126.55702,0.5959 1.92159,-0.4223 4.29419,-0.9498 5.80934,-1.2784 19.68255,-4.2675 37.75094,-8.092 57.62747,-11.308 9.78173,-1.5826 19.6204,-2.7915 29.43051,-4.1875 65.81535,-9.8642 132.26725,-13.6188 198.71084,-15.9361 z m 0.6123,43.3819 c 5e-5,1.4899 -0.001,2.9798 -0.003,4.4698 -7.53754,-0.5508 -15.07838,-1.0348 -22.6176,-1.4994 7.5511,-0.8898 15.09201,-1.8792 22.62059,-2.9704 z m -453.08979,14.1634 c 6.64912,0 13.29828,0 19.94739,0.01 3.5691,0.049 7.1373,0.1227 10.70472,0.2211 -8.48207,4.2555 -16.82136,8.7721 -24.81589,13.8587 -8.21838,3.812 -16.13231,8.2271 -23.11042,13.7513 -0.19023,-9.1963 -0.19257,-18.3966 -0.14636,-27.5951 2.20411,0 4.40876,0 6.6128,-0.01 3.60418,-0.1065 7.20627,-0.1846 10.80776,-0.2345 z m 318.12789,25.5104 c 38.68053,0.9435 77.38773,1.0785 116.07183,1.5172 1.87169,0.022 3.7435,0.045 5.6152,0.067 0.24329,0.1672 0.48911,0.3297 0.72878,0.5033 3.7789,2.1164 7.40694,4.1895 11.10197,6.3246 0.2858,0.3686 0.55455,0.7462 0.81539,1.129 0.0145,0.7213 0.0228,1.4426 0.0344,2.164 -0.38533,13.5285 -1.00324,27.0487 -2.01609,40.5474 -1.78199,18.3625 -5.06614,36.6095 -5.50767,55.0722 -0.0717,2.5946 -0.15669,5.1892 -0.23447,7.7836 -11.64767,0.025 -23.29532,0.022 -34.94266,-0.072 -8.76276,-0.095 -17.53446,-0.4073 -26.29437,-0.1031 -5.88556,0.3598 -11.18963,1.6637 -16.20193,3.6185 -23.93194,-0.023 -47.86424,-0.089 -71.7954,-0.2807 -10.32527,-0.1035 -20.65001,-0.1918 -30.97469,-0.345 -10.0467,-0.01 -20.09293,0.2114 -30.13988,0.2957 -14.8399,0.093 -29.67952,-0.037 -44.51837,-0.1927 -6.94973,-0.1525 -13.90074,-0.089 -20.85091,-0.019 -16.41267,-0.093 -32.78997,0.5238 -49.17032,1.4814 -10.96529,0.6465 -21.94084,1.1724 -32.92358,1.3963 -17.66706,-0.4339 -51.62285,6.4926 -48.44603,26.9141 3.6708,5.996 9.53444,6.3713 16.17506,7.5806 4.43917,0.8083 8.89488,1.5365 13.37194,2.0982 3.10212,0.3892 8.09301,0.8936 13.4272,1.4128 0.16087,6.3856 0.25132,12.7734 0.2927,19.1619 -2.24463,1.3066 -4.49183,2.6079 -6.72629,3.932 -3.62197,2.1465 -3.07389,8.2876 -3.21231,11.7128 -0.0119,5.3249 0.0307,10.6486 0.0104,15.9735 -0.0147,5.1635 -0.0117,10.3278 -0.0284,15.4911 0.0455,4.2755 0.0503,8.5509 0.0418,12.8268 l -16.39459,11.9114 c 5.4334,-0.1064 10.86778,-0.1682 16.302,-0.2151 -0.003,0.3282 -0.005,0.656 -0.007,0.9842 -2.11718,1.3195 -4.23257,2.6199 -6.35144,3.8843 -2.70223,3.4082 -2.7928,7.9472 -3.01817,12.1175 -0.36336,6.2154 4.63576,8.3008 9.75491,9.3189 0.0642,0.9525 0.13858,1.904 0.2285,2.8554 0.84972,6.1196 2.24709,13.1743 9.37857,14.3456 0.87522,0 1.75018,-0.01 2.6254,-0.01 0.007,0.8049 0.0172,1.61 0.0224,2.4149 -0.0289,2.5656 -0.0592,5.1312 -0.0881,7.697 -0.56615,16.1455 -2.60997,12.8096 19.75773,-2.6598 14.08479,-4.5725 19.00744,-4.3728 20.53579,-7.4595 2.14586,-0.055 4.29002,-0.1435 6.4321,-0.3002 5.57698,-0.4941 11.15929,-1.2172 16.59022,-2.6105 6.60248,-0.084 13.2181,-0.3601 19.70546,-1.7174 10.09928,-2.3994 19.92679,-6.1626 29.26774,-10.9511 11.8527,0.158 23.66968,-0.2823 35.48776,-1.262 11.94585,-0.9353 23.77861,-2.8142 35.71774,-3.8425 3.50197,-0.2456 7.00737,-0.4323 10.51356,-0.5884 4.40586,20.5669 7.70457,41.3237 10.10138,62.26 0.0421,0.4647 0.0807,0.9301 0.12246,1.3949 -0.0491,2.3819 -0.10277,4.7639 -0.16128,7.1459 -5.8717,-1.6835 -11.74924,-3.3458 -17.63262,-4.991 -16.25211,-4.0241 -32.64915,-7.4216 -49.34207,-9.0067 -17.27052,-1.508 -37.01549,-4.6998 -52.85007,2.7106 -2.75427,-4.5014 -6.52574,-10.2333 -7.61786,-9.7684 -34.54684,14.7047 -41.81432,10.0314 -42.56051,32.1261 0.0953,12.9766 -0.19786,25.9657 0.56749,38.9285 1.05662,14.8258 3.29115,29.5057 6.91894,43.936 1.23423,4.6745 2.30138,11.0262 4.78785,16.1183 0.0255,5.1339 0.0308,10.2676 0.007,15.4015 -0.0318,3.7063 -0.0741,7.4144 -0.0971,11.1213 -4.69598,0.3093 -9.39879,0.4613 -14.1052,0.5183 -5.59856,-0.037 -11.19902,-0.116 -16.8008,-0.2405 -1.88725,-0.029 -3.77432,-0.054 -5.66149,-0.088 -1.25213,-0.023 -2.6938,-0.7501 -3.75591,-0.087 -0.0987,0.062 -0.1795,0.1104 -0.27778,0.1717 -10.12915,-0.2126 -9.00119,0.8257 -21.85895,13.2421 -25.66255,15.047 -27.11018,14.0808 -15.04007,13.6497 -0.004,0 -0.007,0.01 -0.0104,0.01 -0.95294,0.8191 2.24897,0.023 3.72604,-0.092 0.86783,-0.01 1.72125,-0.024 2.67618,-0.015 12.44089,0.021 24.88805,0.2239 37.32465,-0.1224 1.3662,-0.1149 2.72783,-0.2623 4.08595,-0.4242 10.15586,-0.1889 20.31127,-0.4398 30.46544,-0.8034 0.24657,-0.011 0.4927,-0.026 0.73923,-0.037 0.60664,1.9316 1.50828,3.7631 2.89571,5.412 3.39948,2.7128 7.03884,2.4397 11.11242,2.0609 -0.0146,1.2848 -0.0365,2.5697 -0.0478,3.8545 0.0934,6.1366 0.10852,12.2737 0.10155,18.4107 -1.47096,5.3038 -3.99725,11.5282 -0.0702,11.8248 -0.36435,15.0822 -1.78324,21.9326 20.57164,-0.054 20.63158,-1.2663 20.48388,-7.4736 20.18634,-20.7255 2.30539,-2.6779 0.95839,-6.6987 -0.0777,-10.6226 -0.009,-4.9739 -0.004,-9.9482 0.0418,-14.922 15.69091,-1.7741 31.37292,-3.6724 47.09747,-5.1433 36.61536,-3.1043 73.35506,-4.1264 110.08478,-4.5474 16.71022,-0.199 33.41874,0.074 50.1276,0.2225 8.07107,0.01 16.14162,0.1386 24.21255,0.1493 2.16992,0 4.33986,-0.015 6.50975,-0.022 0.5151,3.2312 0.36425,6.9338 1.30374,9.2666 3.01901,13.1853 7.5999,25.9425 10.37916,39.1884 2.86348,13.1107 6.19243,26.1145 8.98432,39.2422 2.9558,16.58 3.97181,33.3995 3.98141,50.2306 -25.97946,0.1694 -51.95934,0.3104 -77.93925,0.454 -94.60754,-0.7939 -188.99963,6.2957 -283.34204,12.3579 -32.76367,1.4291 -65.51389,4.0698 -98.29137,5.7377 0.47957,-10.7637 1.11482,-21.52 2.08032,-32.2545 0.80278,-2.9285 1.61786,-5.8549 2.43873,-8.7797 2.99009,-11 6.25161,-22.0707 7.00107,-33.5016 -0.0716,-10.1869 -0.0569,-20.3788 0.48984,-30.555 0.93674,-16.4181 2.67161,-32.7438 4.81174,-49.0479 1.91606,-20.6266 3.89821,-41.2856 3.511,-62.0316 0.007,-4.2151 0.0265,-8.4306 0.0373,-12.6461 1.06032,-9.4607 2.07093,-18.9265 2.92856,-28.409 2.80439,-42.4336 2.61257,-84.9177 2.48353,-127.4292 0.003,-44.2338 -0.41373,-88.4688 -1.42023,-132.6919 -1.24196,-32.4422 -2.17432,-65.3281 -10.21638,-96.9502 -5.05452,-14.0995 -4.02258,-14.1622 -14.9863,-6.1096 -3e-5,-0.2276 -0.003,-0.4549 -0.003,-0.6825 l -7.45806,3.8007 c -0.005,-3.3034 -0.011,-6.6068 -0.0164,-9.9102 7.6243,-4.8062 14.79985,-10.6117 21.74545,-16.0914 4.31265,-0.9735 8.71853,-1.4831 13.24052,-1.3068 7.05135,-0.013 14.10274,-0.019 21.15406,0 5.73111,0 11.46204,0.01 17.19207,0.1285 2.69968,0.082 5.39957,0.1975 8.09724,0.3315 2.62629,0.9102 5.21497,1.9393 7.74778,3.1257 3.06791,1.2813 6.20829,2.4012 9.19638,3.8589 4.06893,1.985 7.99201,4.4848 12.63867,4.8715 12.5452,-0.062 25.09138,-0.08 37.63378,0.2479 17.09359,0.4588 34.20362,1.0265 51.21779,2.8375 9.31756,0.028 18.63321,-0.039 27.95055,-0.103 13.52915,-0.061 27.06289,-0.1584 40.58922,0.1717 l 18.05824,-13.1196 c 6.32122,-0.2092 12.64114,-0.4868 18.95578,-0.8661 9.5954,-0.6984 21.65024,-0.5674 31.16435,-4.2263 z m -316.972,27.1172 c 0.12697,-0.016 0.1518,0.013 10e-4,0.1031 -0.69475,0.4158 -1.35316,0.7928 -2.02655,1.1857 0.0402,-0.1 0.076,-0.2127 0.11948,-0.3031 0.22788,-0.4737 1.52465,-0.9362 1.90558,-0.9857 z m 545.68233,96.3156 c 0.115947,-0.018 -2.69491,1.7772 -3.8276,2.1952 -0.0375,0.014 -0.0884,0.027 -0.12694,0.04 1.23699,-0.7034 2.47939,-1.3976 3.712605,-2.1072 0.149499,-0.086 0.225373,-0.1258 0.241935,-0.1284 z m -462.50122,3.9142 c 1.99897,0.01 2.27348,0.2266 0.91993,0.9453 -1.20005,-0.318 -2.40041,-0.6317 -3.61254,-0.8915 1.07002,-0.032 2.0163,-0.057 2.69261,-0.054 z m -39.46619,20.7673 c -0.90804,0.5091 -1.81709,1.0204 -2.75384,1.5546 -0.391,0.223 0.66811,-0.6096 1.04688,-0.8527 0.5554,-0.3566 1.1262,-0.5701 1.70696,-0.7019 z m 278.65872,92.1863 c 1.24016,0.5076 2.47083,1.0288 3.6902,1.5651 -1.17149,-0.1471 -2.34714,-0.2515 -3.52592,-0.3211 -0.0548,-0.4147 -0.10823,-0.8296 -0.16428,-1.244 z m 85.14045,0.7587 c 0.11262,0.014 -2.01056,1.564 -2.8763,1.9608 -0.41233,0.189 -0.84121,0.3333 -1.27536,0.4645 1.31706,-0.7799 2.63412,-1.5583 3.95602,-2.3298 0.11751,-0.069 0.17955,-0.097 0.19564,-0.095 z m -75.71109,3.4527 c 0.27369,0.1314 0.54982,0.2588 0.82286,0.3912 -0.13987,0 -0.27977,10e-5 -0.41965,0 -0.12868,-0.1351 -0.26435,-0.2643 -0.40321,-0.3912 z m -130.19794,5.1866 c 4.45059,-0.014 8.90042,3e-4 13.35102,0.01 -0.75477,0.4128 -1.50325,0.8431 -2.25354,1.2709 -8.53512,-2e-4 -17.06933,0 -25.60441,-0.031 -11.56716,-0.032 -23.1338,0.023 -34.70073,0.09 -9.68148,0.035 -19.37221,0.076 -29.05119,-0.218 -0.007,-0.351 -0.0135,-0.702 -0.0209,-1.0529 0.52272,0 1.04535,-0.013 1.56807,-0.016 12.6404,-0.059 25.28126,-0.053 37.92051,0.1554 6.30378,0.051 12.60588,0.013 18.90948,-0.063 6.62669,-0.075 13.25458,-0.1221 19.8817,-0.1433 z m 132.43057,21.4707 c 3.09445,0.039 6.18873,0.07 9.283,0.1045 l -9.26508,4.9357 c -3.9e-4,-0.1812 4.9e-4,-0.3624 0,-0.5436 -0.007,-1.4986 -0.0126,-2.9979 -0.0179,-4.4966 z m 0.0149,8.2496 c 0.65184,0.1533 1.0781,0.4134 0.69592,0.6764 -0.15521,0.1069 -0.31448,0.2078 -0.47042,0.3137 -0.0787,0.014 -0.14857,0.027 -0.227,0.042 2.3e-4,-0.344 0.001,-0.688 0.001,-1.0319 z m -148.8192,75.487 c 15.98004,1.4285 31.68208,4.6593 47.25728,8.4123 3.22957,0.8524 6.45528,1.7204 9.68024,2.5881 -18.93317,-0.037 -37.86566,-0.2337 -56.79714,-0.4883 -0.009,-3.5002 -0.10755,-7.0106 -0.14038,-10.5121 z m -246.63865,0.3136 c -1.27484,2.1281 -2.14754,2.2257 0,0 z m 248.66371,39.3303 c 1.87435,0.1464 3.74883,0.2937 5.62267,0.4436 -1.8419,1.253 -3.67714,2.5165 -5.50469,3.7917 -0.0359,-1.4116 -0.0741,-2.8238 -0.11798,-4.2353 z m 117.03956,34.523 c -0.56464,0.1995 -1.12061,0.4537 -1.66813,0.7916 -0.45442,0.2803 -1.77822,1.1795 -1.3142,0.9154 1.07165,-0.6101 1.94784,-1.1165 2.98233,-1.707 z m 143.12634,229.0912 c -0.008,0.1182 -0.0184,0.2533 -0.0269,0.3733 -1.29976,-0.022 -2.59958,-0.041 -3.89928,-0.066 1.30864,-0.1031 2.61769,-0.2025 3.92616,-0.3076 z m -335.19601,16.5812 c -41.26371,7.2322 -82.62928,13.9658 -124.06154,20.0818 l 0,0 -8.23016,6.1483 c -1.13249,-0.1085 -2.26528,-0.2143 -3.39599,-0.345 -5.10979,0.01 -1.03574,-2.7747 -0.4092,-6.7009 1.29821,-6.0617 2.38794,-12.1741 3.52294,-18.2688 l 0.64963,-0.3285 c 15.1518,-0.1368 30.30339,-0.2612 45.45623,-0.3645 28.82215,-0.011 57.64569,-0.1416 86.46809,-0.224 z m 130.49812,0.6437 c 5.00662,0.1014 10.01104,0.24 15.01468,0.4122 -0.76587,0.065 -1.53063,0.1378 -2.29686,0.2001 -12.91879,2.1516 -25.82772,4.3658 -38.68662,6.8427 -12.70662,2.8222 -25.37968,5.7442 -38.26997,7.5985 -10.3232,2.22 -20.69378,5.2531 -31.31668,5.2822 -6.58029,0.1142 -13.13647,0.6407 -19.54567,2.2416 -10.73421,2.1251 -21.53077,4.4054 -32.54426,3.9978 -9.26478,-0.029 -18.52895,-0.051 -27.79374,-0.021 -0.52469,6e-4 -1.04937,0 -1.57405,0 7.3466,-1.3164 14.6909,-2.6424 22.03069,-3.9948 51.15927,-8.9901 102.51823,-16.8204 154.1611,-22.4713 0.24236,-0.026 0.57258,-0.06 0.82138,-0.087 z m 217.51876,15.6494 c -1.29626,2.7661 -2.76209,5.4397 -4.528,7.9419 -15.07,0.075 -30.14141,0.048 -45.21132,0.1478 -25.50191,0.4702 -50.99216,1.334 -76.48467,2.1565 8.00086,-1.192 16.00267,-2.3748 24.01095,-3.511 3.14896,-0.018 6.29824,-0.04 9.44727,-0.049 12.44913,-0.125 24.89664,0.1011 37.34555,0.085 10.02754,-0.015 20.05574,-0.013 30.08313,0.043 12.05048,0.1768 17.5339,-1.3989 25.33709,-6.8143 z"
         style="opacity:1;fill:#ff7f2a;fill-opacity:1;stroke:none" />
    </g>
    <path
       style="opacity:1;fill:#ff7f2a;fill-opacity:1;stroke:none"
       d="m -23.329725,-77.211955 17.6239404,183.242555 0,31.97293 L -23.329725,-45.239027 -40.953675,221.93144 -58.577615,12.111703 -76.201119,151.99153 -93.825139,-43.840247 -111.44908,193.95548 -129.07303,26.099683 -146.69697,179.9675 -164.32084,-15.864277 -181.94486,172.97351 -199.56835,47.081653 l -17.62395,90.921877 -17.62394,0 -3.39964,0 0,-31.97293 3.39964,0 17.62394,0 17.62395,-83.927877 17.62349,125.891847 17.62402,-195.831787 17.62387,195.831787 17.62394,-153.8678066 17.62395,167.8557866 17.623941,-237.795722 17.62402,195.831772 17.623504,-139.879827 17.62394,209.819737 17.62395,-267.170465 z"
       id="rect4224-6"
       inkscape:connector-curvature="0" />
    <text
       xml:space="preserve"
       style="font-style:normal;font-weight:normal;font-size:30.09255028px;line-height:125%;font-family:sans-serif;letter-spacing:0px;word-spacing:0px;fill:#0000ff;fill-opacity:1;stroke:none;stroke-width:1px;stroke-linecap:butt;stroke-linejoin:miter;stroke-opacity:1"
       x="-2410.8425"
       y="-216.07153"
       id="text4568"
       sodipodi:linespacing="125%"><tspan
         sodipodi:role="line"
         id="tspan4570"
         x="-2410.8425"
         y="-216.07153"
         style="font-style:normal;font-variant:normal;font-weight:normal;font-stretch:normal;font-size:135.41647339px;font-family:NOZSTUDIO;-inkscape-font-specification:NOZSTUDIO;fill:#0000ff">SOUND</tspan></text>
    <text
       xml:space="preserve"
       style="font-style:normal;font-weight:normal;font-size:41.97069168px;line-height:125%;font-family:sans-serif;letter-spacing:0px;word-spacing:0px;fill:#0000ff;fill-opacity:1;stroke:none;stroke-width:1px;stroke-linecap:butt;stroke-linejoin:miter;stroke-opacity:1"
       x="-755.6311"
       y="-149.68716"
       id="text4568-8"
       sodipodi:linespacing="125%"><tspan
         sodipodi:role="line"
         id="tspan4570-8"
         x="-755.6311"
         y="-149.68716"
         style="font-style:normal;font-variant:normal;font-weight:500;font-stretch:normal;font-size:188.86810303px;font-family:GhostChase;-inkscape-font-specification:'GhostChase Medium';fill:#0000ff">SOUND</tspan></text>
    <text
       xml:space="preserve"
       style="font-style:normal;font-weight:normal;font-size:42.43782425px;line-height:125%;font-family:sans-serif;letter-spacing:0px;word-spacing:0px;fill:#ff7f2a;fill-opacity:1;stroke:none;stroke-width:1px;stroke-linecap:butt;stroke-linejoin:miter;stroke-opacity:1"
       x="-607.09265"
       y="136.24654"
       id="text4568-8-0"
       sodipodi:linespacing="125%"><tspan
         sodipodi:role="line"
         id="tspan4570-8-8"
         x="-607.09265"
         y="136.24654"
         style="font-style:normal;font-variant:normal;font-weight:500;font-stretch:normal;font-size:190.97021484px;font-family:GhostChase;-inkscape-font-specification:'GhostChase Medium';fill:#ff7f2a;fill-opacity:1">Like</tspan></text>
    <g
       id="g4235"
       transform="translate(-1862.7213,-513.15749)">
      <path
         id="rect4136-3"
         d="m -131.09114,-189.60477 c -300.93953,-0.57392 -602.08807,165.750596 -638.47657,500.48242 -67.3975,21.6043 -112.2422,80.03726 -112.2422,210.32617 0,176.16989 88.2636,238.98238 197.1426,238.98242 108.87901,4e-5 117.14258,-62.81247 117.14258,-238.98242 0,-127.53606 -7.63688,-186.2193 -53.15625,-208.90625 66.99749,-618.87934 932.38907,-607.43635 985.08207,21.49609 -39.3248,29.75544 -43.3536,97.46546 -43.3536,220.28321 0,176.16995 14.5488,220.98441 123.4278,220.98437 108.879,-4e-5 190.8574,-44.81448 190.8574,-220.98437 0,-136.74475 -53.1852,-205.18135 -127.9062,-228.96875 -28.5959,-342.029244 -333.4433,-514.13109 -638.51763,-514.71289 z"
         style="opacity:1;fill:#ff7f2a;stroke:none"
         inkscape:connector-curvature="0" />
      <path
         inkscape:connector-curvature="0"
         id="rect4224-8"
         d="m -541.32909,393.57647 -17.62394,183.24257 0,31.97293 17.62394,-183.24257 17.62395,267.17048 17.62394,-209.81975 17.6235,139.87984 17.62402,-195.83179 17.62394,237.79574 17.62395,-167.8558 17.62394,153.86782 17.62387,-195.83179 17.62402,188.8378 17.62349,-125.89186 17.62395,90.92188 17.62394,0 3.39964,0 0,-31.97293 -3.39964,0 -17.62394,0 -17.62395,-83.92789 -17.62349,125.89186 -17.62402,-195.8318 -17.62387,195.8318 -17.62394,-153.86782 -17.62395,167.8558 -17.62394,-237.79574 -17.62402,195.83179 -17.6235,-139.87984 -17.62394,209.81975 -17.62395,-267.17048 z"
         style="opacity:1;fill:#ff7f2a;fill-opacity:1;stroke:none" />
      <path
         inkscape:connector-curvature="0"
         id="rect4224-6-0"
         d="m 279.67809,393.57647 17.6239,183.24256 0,31.97293 -17.6239,-183.24256 -17.624,267.17047 -17.6239,-209.81974 -17.6235,139.87983 -17.624,-195.83178 -17.624,237.79573 -17.6239,-167.8558 -17.624,153.86782 -17.6238,-195.83178 -17.624,188.83779 -17.62353,-125.89186 -17.62395,90.92188 -17.62394,0 -3.39964,0 0,-31.97293 3.39964,0 17.62394,0 17.62395,-83.92788 17.62353,125.89185 17.624,-195.83179 17.6238,195.83179 17.624,-153.86781 17.6239,167.85579 17.624,-237.79572 17.624,195.83177 17.6235,-139.87983 17.6239,209.81974 17.624,-267.17047 z"
         style="opacity:1;fill:#ff7f2a;fill-opacity:1;stroke:none" />
    </g>
    <path
       style="fill:none;fill-rule:evenodd;stroke:#000000;stroke-width:5;stroke-linecap:round;stroke-linejoin:round;stroke-miterlimit:4;stroke-dasharray:none;stroke-opacity:1"
       d="m -2630.4372,-150.72948 c 0,0 -145.462,153.5431901 -8.0813,320.21836"
       id="path4242"
       inkscape:connector-curvature="0"
       sodipodi:nodetypes="cc" />
    <path
       style="fill:none;fill-rule:evenodd;stroke:#000000;stroke-width:5;stroke-linecap:round;stroke-linejoin:round;stroke-miterlimit:4;stroke-dasharray:none;stroke-opacity:1"
       d="m -1354.8019,-130.02216 c 0,0 145.462,153.543193 8.0813,320.21837"
       id="path4242-6"
       inkscape:connector-curvature="0"
       sodipodi:nodetypes="cc" />
  </g>
</svg>
